<?xml version="1.0" encoding="utf-8"?>
<!-- Generator: Adobe Illustrator 16.0.0, SVG Export Plug-In . SVG Version: 6.00 Build 0)  -->
<!DOCTYPE svg PUBLIC "-//W3C//DTD SVG 1.1//EN" "http://www.w3.org/Graphics/SVG/1.1/DTD/svg11.dtd">
<svg version="1.1" id="Capa_1" xmlns="http://www.w3.org/2000/svg" xmlns:xlink="http://www.w3.org/1999/xlink" x="0px" y="0px"
	 width="400px" height="400px" viewBox="0 0 400 400" enable-background="new 0 0 400 400" xml:space="preserve">
<g>
	<g>
		<g>
			<path fill="#4E4E4E" d="M286,336.228c0,10.587-7.727,20.772-18.307,20.772H70.34C59.759,357,50,346.814,50,336.228V63.028
				C50,52.442,59.759,43,70.34,43h197.354C278.273,43,286,52.442,286,63.028V336.228z"/>
			<rect x="70" y="66" fill="#F2F2F2" width="197" height="240"/>
			<path fill="#B4B4B4" d="M184.852,330.781c0,8.75-7.085,15.831-15.836,15.831c-8.748,0-15.834-7.081-15.834-15.831
				c0-8.751,7.087-15.841,15.834-15.841C177.767,314.94,184.852,322.03,184.852,330.781z"/>
		</g>
	</g>
	<g>
		<path fill="#03445E" d="M170,103.777c0,3.316-1.894,5.223-5.21,5.223h-64.065c-3.318,0-5.725-1.907-5.725-5.223V91.765
			C95,88.448,97.406,86,100.725,86h64.065c3.316,0,5.21,2.448,5.21,5.765V103.777z"/>
		<path fill="#EB584D" d="M242,179.853c0,3.316-1.82,7.147-5.137,7.147H100.725c-3.318,0-5.725-3.831-5.725-7.147v-56.056
			c0-3.316,2.406-6.797,5.725-6.797h136.139c3.316,0,5.137,3.481,5.137,6.797V179.853z"/>
		<path fill="#F7A634" d="M165,227.902c0,3.315-2.897,6.098-6.217,6.098h-58.059c-3.318,0-5.725-2.782-5.725-6.098v-30.031
			c0-3.316,2.406-5.872,5.725-5.872h58.059c3.319,0,6.217,2.556,6.217,5.872V227.902z"/>
		<path fill="#9FCFA2" d="M243,228.459c0,3.061-2.48,5.541-5.541,5.541h-58.918c-3.06,0-5.541-2.48-5.541-5.541v-30.918
			c0-3.06,2.48-5.541,5.541-5.541h58.918c3.061,0,5.541,2.481,5.541,5.541V228.459z"/>
		<g>
			<path fill="#B4B4B4" d="M242,245.42c0,1.384-0.22,2.58-1.564,2.58H175.23c-1.344,0-2.23-1.196-2.23-2.58v-1
				c0-1.383,0.886-2.42,2.23-2.42h65.205c1.345,0,1.564,1.037,1.564,2.42V245.42z"/>
			<path fill="#B4B4B4" d="M242,255.431c0,1.381-0.22,3.569-1.564,3.569H175.23c-1.344,0-2.23-2.188-2.23-3.569v-1.003
				c0-1.38,0.886-2.428,2.23-2.428h65.205c1.345,0,1.564,1.048,1.564,2.428V255.431z"/>
			<path fill="#B4B4B4" d="M242,265.44c0,1.383-0.22,2.56-1.564,2.56H175.23c-1.344,0-2.23-1.177-2.23-2.56v-0.999
				c0-1.385,0.886-1.441,2.23-1.441h65.205c1.345,0,1.564,0.057,1.564,1.441V265.44z"/>
			<path fill="#B4B4B4" d="M242,275.451c0,1.382-0.22,1.549-1.564,1.549H175.23c-1.344,0-2.23-0.167-2.23-1.549v-1.002
				c0-1.38,0.886-1.449,2.23-1.449h65.205c1.345,0,1.564,0.069,1.564,1.449V275.451z"/>
			<path fill="#B4B4B4" d="M210,285.461c0,1.382-0.254,4.539-1.596,4.539H175.23c-1.344,0-2.23-3.157-2.23-4.539v-1
				c0-1.384,0.886-2.461,2.23-2.461h33.174c1.342,0,1.596,1.077,1.596,2.461V285.461z"/>
		</g>
		<g>
			<path fill="#B4B4B4" d="M165,245.42c0,1.384-1.3,2.58-2.642,2.58H97.15c-1.344,0-2.15-1.196-2.15-2.58v-1
				c0-1.383,0.807-2.42,2.15-2.42h65.208c1.342,0,2.642,1.037,2.642,2.42V245.42z"/>
			<path fill="#B4B4B4" d="M165,255.431c0,1.381-1.3,3.569-2.642,3.569H97.15c-1.344,0-2.15-2.188-2.15-3.569v-1.003
				c0-1.38,0.807-2.428,2.15-2.428h65.208c1.342,0,2.642,1.048,2.642,2.428V255.431z"/>
			<path fill="#B4B4B4" d="M165,265.44c0,1.383-1.3,2.56-2.642,2.56H97.15c-1.344,0-2.15-1.177-2.15-2.56v-0.999
				c0-1.385,0.807-1.441,2.15-1.441h65.208c1.342,0,2.642,0.057,2.642,1.441V265.44z"/>
			<path fill="#B4B4B4" d="M165,275.451c0,1.382-1.3,1.549-2.642,1.549H97.15c-1.344,0-2.15-0.167-2.15-1.549v-1.002
				c0-1.38,0.807-1.449,2.15-1.449h65.208c1.342,0,2.642,0.069,2.642,1.449V275.451z"/>
			<path fill="#B4B4B4" d="M133,285.461c0,1.382-1.332,4.539-2.677,4.539H97.15c-1.344,0-2.15-3.157-2.15-4.539v-1
				c0-1.384,0.807-2.461,2.15-2.461h33.173c1.345,0,2.677,1.077,2.677,2.461V285.461z"/>
		</g>
	</g>
</g>
<g>
	<g>
		<g>
			<path fill="#4E4E4E" d="M350,345.134c0,6.401-5.387,11.866-11.796,11.866H264.75c-6.404,0-12.75-5.465-12.75-11.866V186.628
				c0-6.402,6.346-12.628,12.75-12.628h73.454c6.409,0,11.796,6.226,11.796,12.628V345.134z"/>
			<g>
				<path fill="#4E4E4E" d="M350,345.134c0,6.401-5.387,11.866-11.796,11.866H264.75c-6.404,0-12.75-5.465-12.75-11.866V186.628
					c0-6.402,6.346-12.628,12.75-12.628h73.454c6.409,0,11.796,6.226,11.796,12.628V345.134z"/>
				<rect x="259" y="197" fill="#F2F2F2" width="85" height="133"/>
				<circle fill="#B4B4B4" cx="301.479" cy="343.653" r="7.022"/>
				<path fill="#B4B4B4" d="M318,188.818c0,0.998-0.572,2.182-1.574,2.182h-34.653c-1.001,0-1.772-1.184-1.772-2.182v-0.293
					c0-0.998,0.771-1.525,1.772-1.525h34.653c1.002,0,1.574,0.527,1.574,1.525V188.818z"/>
			</g>
		</g>
	</g>
	<g>
		<path fill="#E94A2F" d="M335,217.521c0,1.921-1.557,3.479-3.477,3.479h-59.047c-1.92,0-3.477-1.558-3.477-3.479v-7.043
			c0-1.921,1.557-3.479,3.477-3.479h59.047c1.92,0,3.477,1.558,3.477,3.479V217.521z"/>
		<path fill="#F7A634" d="M335,261.109c0,1.939-1.467,3.891-3.398,3.891h-59.263c-1.932,0-3.339-1.951-3.339-3.891v-32.729
			c0-1.941,1.407-3.381,3.339-3.381h59.263c1.932,0,3.398,1.439,3.398,3.381V261.109z"/>
		<path fill="#9A9999" d="M335,288.658c0,1.92-1.2,3.342-3.164,3.342h-59.856c-1.964,0-2.979-1.422-2.979-3.342v-17.391
			c0-1.92,1.016-3.268,2.979-3.268h59.856c1.964,0,3.164,1.348,3.164,3.268V288.658z"/>
		<path fill="#9A9999" d="M335,317.312c0,1.92-1.199,3.688-3.164,3.688h-59.856c-1.966,0-2.979-1.769-2.979-3.688v-17.39
			c0-1.921,1.014-2.922,2.979-2.922h59.856c1.965,0,3.164,1.001,3.164,2.922V317.312z"/>
	</g>
</g>
</svg>
