<?xml version="1.0" encoding="utf-8"?>
<!-- Generator: Adobe Illustrator 16.0.0, SVG Export Plug-In . SVG Version: 6.00 Build 0)  -->
<!DOCTYPE svg PUBLIC "-//W3C//DTD SVG 1.1//EN" "http://www.w3.org/Graphics/SVG/1.1/DTD/svg11.dtd">
<svg version="1.1" id="Capa_1" xmlns="http://www.w3.org/2000/svg" xmlns:xlink="http://www.w3.org/1999/xlink" x="0px" y="0px"
	 width="400px" height="400px" viewBox="0 0 400 400" enable-background="new 0 0 400 400" xml:space="preserve">
<g>
	<defs>
		<rect id="SVGID_1_" x="66.21" y="33.618" width="267.579" height="332.764"/>
	</defs>
	<clipPath id="SVGID_2_">
		<use xlink:href="#SVGID_1_"  overflow="visible"/>
	</clipPath>
	<g clip-path="url(#SVGID_2_)">
		<defs>
			<rect id="SVGID_3_" x="66.21" y="33.618" width="267.515" height="332.662"/>
		</defs>
		<clipPath id="SVGID_4_">
			<use xlink:href="#SVGID_3_"  overflow="visible"/>
		</clipPath>
		<path clip-path="url(#SVGID_4_)" fill="#B0AFAF" d="M287.701,365.714c0,0.369-0.295,0.667-0.666,0.664l-183.627,0.005
			c-0.368,0-0.667-0.298-0.667-0.666v-85.246c0-0.366,0.299-0.664,0.666-0.664l183.628-0.003c0.369,0,0.665,0.299,0.665,0.667
			L287.701,365.714z"/>
		<path clip-path="url(#SVGID_4_)" fill="#C9C9C9" d="M116.711,299.336c0,0.367-0.297,0.666-0.666,0.666h-10.002
			c-0.367,0-0.666-0.299-0.666-0.666v-5.45c0-0.368,0.299-0.667,0.666-0.667h10.002c0.369,0,0.666,0.299,0.666,0.667V299.336z"/>
		<path clip-path="url(#SVGID_4_)" fill="#C9C9C9" d="M129.669,299.336c0,0.367-0.297,0.666-0.666,0.666h-10.002
			c-0.366,0-0.664-0.299-0.664-0.666v-5.45c0-0.368,0.298-0.667,0.664-0.667h10.002c0.369,0,0.666,0.299,0.666,0.667V299.336z"/>
		<path clip-path="url(#SVGID_4_)" fill="#C9C9C9" d="M142.627,299.336c0,0.367-0.296,0.666-0.665,0.666h-10.003
			c-0.368,0-0.665-0.299-0.665-0.666v-5.45c0-0.368,0.297-0.667,0.665-0.667h10.003c0.369,0,0.665,0.299,0.665,0.667V299.336z"/>
		<path clip-path="url(#SVGID_4_)" fill="#C9C9C9" d="M155.586,299.336c0,0.367-0.297,0.666-0.667,0.666h-10.002
			c-0.366,0-0.666-0.299-0.666-0.666v-5.45c0-0.368,0.3-0.667,0.666-0.667h10.002c0.37,0,0.667,0.299,0.667,0.667V299.336z"/>
		<path clip-path="url(#SVGID_4_)" fill="#C9C9C9" d="M168.544,299.335c0,0.368-0.298,0.665-0.665,0.665h-10.004
			c-0.366,0-0.665-0.297-0.665-0.664v-5.45c0-0.368,0.298-0.667,0.665-0.667h10.002c0.369,0,0.667,0.299,0.667,0.667V299.335z"/>
		<path clip-path="url(#SVGID_4_)" fill="#C9C9C9" d="M181.503,299.334c0,0.369-0.3,0.666-0.667,0.666h-10.003
			c-0.368,0-0.666-0.297-0.666-0.665v-5.449c0-0.368,0.298-0.667,0.666-0.667h10.003c0.367,0,0.667,0.299,0.667,0.667V299.334z"/>
		<path clip-path="url(#SVGID_4_)" fill="#C9C9C9" d="M194.459,299.334c0.001,0.368-0.298,0.666-0.665,0.666h-10.003
			c-0.367,0-0.666-0.297-0.666-0.666v-5.448c0-0.37,0.299-0.667,0.665-0.667h10.004c0.367,0,0.665,0.297,0.665,0.667V299.334z"/>
		<path clip-path="url(#SVGID_4_)" fill="#C9C9C9" d="M207.418,299.334c0,0.366-0.298,0.666-0.666,0.666h-10.001
			c-0.37,0-0.666-0.298-0.666-0.666v-5.448c0-0.37,0.296-0.667,0.666-0.667h10.001c0.368,0,0.666,0.297,0.666,0.667V299.334z"/>
		<path clip-path="url(#SVGID_4_)" fill="#C9C9C9" d="M220.375,299.334c0,0.366-0.298,0.666-0.667,0.666h-10.001
			c-0.368,0-0.666-0.298-0.666-0.666v-5.448c0-0.37,0.298-0.667,0.666-0.667h10.001c0.369,0,0.667,0.297,0.667,0.667V299.334z"/>
		<path clip-path="url(#SVGID_4_)" fill="#C9C9C9" d="M233.334,299.334c0,0.366-0.299,0.666-0.666,0.666h-10.001
			c-0.371,0-0.668-0.3-0.668-0.666v-5.449c0-0.369,0.297-0.666,0.667-0.666h10.001c0.368,0,0.667,0.297,0.667,0.666V299.334z"/>
		<path clip-path="url(#SVGID_4_)" fill="#C9C9C9" d="M246.291,299.334c0,0.366-0.297,0.666-0.664,0.666h-10.005
			c-0.366,0-0.663-0.3-0.663-0.666v-5.449c0-0.369,0.297-0.666,0.663-0.666h10.003c0.369,0,0.666,0.297,0.666,0.666V299.334z"/>
		<path clip-path="url(#SVGID_4_)" fill="#C9C9C9" d="M259.249,299.334c0,0.366-0.298,0.666-0.667,0.666h-10.001
			c-0.368,0-0.666-0.3-0.666-0.666v-5.449c0-0.369,0.298-0.666,0.666-0.666h10.001c0.369,0,0.667,0.297,0.667,0.666V299.334z"/>
		<path clip-path="url(#SVGID_4_)" fill="#C9C9C9" d="M272.208,299.334c0,0.366-0.299,0.666-0.666,0.666H261.54
			c-0.368,0-0.666-0.3-0.666-0.666v-5.449c0-0.369,0.298-0.666,0.666-0.666h10.002c0.367,0,0.666,0.297,0.666,0.664V299.334z"/>
		<path clip-path="url(#SVGID_4_)" fill="#C9C9C9" d="M285.166,299.334c0,0.366-0.298,0.666-0.666,0.666h-10.002
			c-0.367,0-0.667-0.3-0.667-0.666v-5.451c0-0.367,0.3-0.664,0.667-0.664H284.5c0.368,0,0.666,0.297,0.666,0.664V299.334z"/>
		<path clip-path="url(#SVGID_4_)" fill="#C9C9C9" d="M116.711,312.094c0,0.369-0.297,0.664-0.666,0.664h-10.002
			c-0.367,0-0.666-0.295-0.666-0.664v-10c0-0.364,0.299-0.664,0.666-0.664h10.002c0.369,0,0.666,0.298,0.666,0.664V312.094z"/>
		<path clip-path="url(#SVGID_4_)" fill="#C9C9C9" d="M129.178,312.094c0,0.369-0.297,0.664-0.666,0.664H118.51
			c-0.367,0-0.666-0.295-0.666-0.664v-10c0-0.366,0.299-0.664,0.666-0.664h10.002c0.369,0,0.666,0.298,0.666,0.664V312.094z"/>
		<path clip-path="url(#SVGID_4_)" fill="#C9C9C9" d="M141.644,312.093c0,0.37-0.298,0.665-0.665,0.665h-10.003
			c-0.365,0-0.664-0.295-0.664-0.665v-9.998c0-0.366,0.299-0.665,0.664-0.665h10.003c0.367,0,0.665,0.299,0.665,0.665V312.093z"/>
		<path clip-path="url(#SVGID_4_)" fill="#C9C9C9" d="M154.11,312.093c0,0.367-0.298,0.665-0.665,0.665h-10.004
			c-0.365,0-0.664-0.295-0.664-0.665v-9.998c0-0.366,0.299-0.665,0.664-0.665h10.004c0.367,0,0.665,0.299,0.665,0.665V312.093z"/>
		<path clip-path="url(#SVGID_4_)" fill="#C9C9C9" d="M166.577,312.093c0,0.367-0.298,0.665-0.666,0.665H155.91
			c-0.369,0-0.667-0.298-0.667-0.665v-9.998c0-0.366,0.297-0.665,0.667-0.665h10.001c0.368,0,0.666,0.297,0.666,0.665V312.093z"/>
		<path clip-path="url(#SVGID_4_)" fill="#C9C9C9" d="M179.043,312.093c0,0.367-0.297,0.665-0.666,0.665h-10
			c-0.369,0-0.667-0.298-0.667-0.665v-9.998c0-0.368,0.298-0.665,0.667-0.665h10c0.369,0,0.666,0.297,0.666,0.665V312.093z"/>
		<path clip-path="url(#SVGID_4_)" fill="#C9C9C9" d="M191.51,312.093c0.001,0.367-0.298,0.665-0.665,0.665h-10.004
			c-0.366,0-0.663-0.298-0.663-0.665v-9.998c0-0.368,0.297-0.665,0.663-0.665h10.004c0.367,0,0.665,0.297,0.665,0.665V312.093z"/>
		<path clip-path="url(#SVGID_4_)" fill="#C9C9C9" d="M203.978,312.093c0,0.367-0.299,0.665-0.667,0.665h-10.002
			c-0.368,0-0.665-0.298-0.665-0.665v-9.998c0-0.368,0.297-0.665,0.665-0.665h10.002c0.368,0,0.667,0.297,0.667,0.665V312.093z"/>
		<path clip-path="url(#SVGID_4_)" fill="#C9C9C9" d="M216.443,312.09c0,0.37-0.298,0.667-0.667,0.668h-10.002
			c-0.368,0-0.665-0.298-0.665-0.665v-9.998c0-0.368,0.297-0.665,0.665-0.665l10.002-0.002c0.369,0.002,0.667,0.299,0.667,0.667
			V312.09z"/>
		<path clip-path="url(#SVGID_4_)" fill="#C9C9C9" d="M228.909,312.09c0,0.37-0.298,0.667-0.665,0.667l-10.004,0.001
			c-0.366,0-0.666-0.298-0.666-0.665v-9.998c0-0.368,0.3-0.667,0.666-0.667h10.004c0.367,0,0.665,0.299,0.665,0.665V312.09z"/>
		<path clip-path="url(#SVGID_4_)" fill="#C9C9C9" d="M241.375,312.09c0,0.37-0.298,0.667-0.664,0.667h-10.003
			c-0.369,0-0.665-0.297-0.665-0.667v-9.997c0-0.366,0.296-0.665,0.665-0.665h10.001c0.368,0,0.666,0.299,0.666,0.665V312.09z"/>
		<path clip-path="url(#SVGID_4_)" fill="#C9C9C9" d="M138.512,336.312c0,0.37-0.299,0.667-0.664,0.667h-10.004
			c-0.367,0-0.666-0.297-0.666-0.667v-9.996c0-0.365,0.299-0.667,0.666-0.667h10.004c0.365,0,0.664,0.299,0.664,0.667V336.312z"/>
		<path clip-path="url(#SVGID_4_)" fill="#C9C9C9" d="M150.979,336.312c0,0.369-0.298,0.667-0.666,0.667h-10.003
			c-0.367,0-0.665-0.297-0.665-0.667v-9.996c0-0.368,0.298-0.667,0.665-0.667h10.003c0.368,0,0.666,0.299,0.666,0.667V336.312z"/>
		<path clip-path="url(#SVGID_4_)" fill="#C9C9C9" d="M163.445,336.312c0,0.369-0.298,0.667-0.665,0.667h-10.003
			c-0.368,0-0.666-0.298-0.666-0.667v-9.996c0-0.368,0.298-0.667,0.666-0.667h10.003c0.367,0,0.665,0.299,0.664,0.667
			L163.445,336.312z"/>
		<path clip-path="url(#SVGID_4_)" fill="#C9C9C9" d="M175.911,336.312c0,0.369-0.298,0.667-0.665,0.667h-10.002
			c-0.367,0-0.667-0.298-0.667-0.667v-9.996c0-0.368,0.3-0.667,0.667-0.667h10.002c0.367,0,0.665,0.299,0.665,0.665V336.312z"/>
		<path clip-path="url(#SVGID_4_)" fill="#C9C9C9" d="M188.379,336.312c0,0.369-0.298,0.667-0.667,0.667h-10.001
			c-0.369,0-0.668-0.298-0.668-0.667v-9.998c0-0.366,0.298-0.665,0.668-0.665h10.001c0.369,0,0.667,0.299,0.667,0.665V336.312z"/>
		<path clip-path="url(#SVGID_4_)" fill="#C9C9C9" d="M200.845,336.312c0,0.369-0.299,0.665-0.666,0.665l-10.001,0.002
			c-0.369-0.002-0.668-0.298-0.668-0.667v-9.998c0-0.366,0.299-0.665,0.668-0.665h10.001c0.367,0,0.666,0.299,0.666,0.665V336.312z"
			/>
		<path clip-path="url(#SVGID_4_)" fill="#C9C9C9" d="M213.311,336.312c0,0.369-0.297,0.665-0.666,0.665h-10.001
			c-0.369,0-0.667-0.296-0.667-0.665v-9.998c0-0.366,0.298-0.665,0.667-0.665h10.001c0.369,0,0.666,0.299,0.666,0.665V336.312z"/>
		<path clip-path="url(#SVGID_4_)" fill="#C9C9C9" d="M225.776,336.312c0,0.369-0.298,0.665-0.665,0.665h-10.002
			c-0.369,0-0.666-0.296-0.666-0.665l-0.001-9.998c0.001-0.366,0.298-0.665,0.667-0.665h10.002c0.367,0,0.665,0.299,0.665,0.665
			V336.312z"/>
		<path clip-path="url(#SVGID_4_)" fill="#C9C9C9" d="M238.244,336.312c0,0.369-0.299,0.665-0.667,0.665h-10.002
			c-0.367,0-0.666-0.296-0.666-0.665v-9.998c0-0.366,0.298-0.665,0.666-0.665h10.002c0.368,0,0.667,0.299,0.667,0.665V336.312z"/>
		<path clip-path="url(#SVGID_4_)" fill="#C9C9C9" d="M250.711,336.312c0,0.369-0.299,0.665-0.666,0.665h-10.004
			c-0.367,0-0.665-0.296-0.665-0.665v-9.998c0-0.366,0.298-0.665,0.665-0.665h10.004c0.367,0,0.666,0.299,0.666,0.665V336.312z"/>
		<path clip-path="url(#SVGID_4_)" fill="#C9C9C9" d="M144.747,348.322c0,0.369-0.3,0.666-0.667,0.666h-10.002
			c-0.369,0-0.666-0.297-0.666-0.666v-9.999c0-0.365,0.297-0.664,0.666-0.664h10.002c0.367,0,0.667,0.299,0.667,0.664V348.322z"/>
		<path clip-path="url(#SVGID_4_)" fill="#C9C9C9" d="M157.211,348.322c0,0.369-0.297,0.666-0.664,0.666h-10.004
			c-0.366,0-0.663-0.297-0.663-0.666v-9.999c0-0.365,0.297-0.664,0.663-0.664h10.004c0.367,0,0.664,0.297,0.664,0.664V348.322z"/>
		<path clip-path="url(#SVGID_4_)" fill="#C9C9C9" d="M169.679,348.322c0,0.369-0.297,0.666-0.667,0.666h-10
			c-0.37,0-0.667-0.297-0.667-0.666v-9.999c0-0.367,0.297-0.664,0.667-0.664h10c0.37,0,0.667,0.297,0.667,0.664V348.322z"/>
		<path clip-path="url(#SVGID_4_)" fill="#C9C9C9" d="M182.146,348.322c0,0.369-0.298,0.666-0.665,0.666h-10.004
			c-0.368,0-0.664-0.297-0.664-0.666v-9.999c0-0.367,0.296-0.664,0.664-0.664h10.004c0.367-0.001,0.665,0.297,0.665,0.664V348.322z"
			/>
		<path clip-path="url(#SVGID_4_)" fill="#C9C9C9" d="M194.612,348.322c0,0.369-0.299,0.666-0.665,0.666h-10.005
			c-0.366,0-0.664-0.297-0.664-0.666v-9.999c0-0.367,0.298-0.665,0.664-0.665h10.005c0.366,0,0.665,0.298,0.665,0.665V348.322z"/>
		<path clip-path="url(#SVGID_4_)" fill="#C9C9C9" d="M207.078,348.322c0,0.369-0.298,0.666-0.667,0.666H196.41
			c-0.366,0-0.666-0.297-0.666-0.666v-9.999c0-0.367,0.3-0.665,0.666-0.665h10.001c0.369,0,0.667,0.298,0.667,0.665V348.322z"/>
		<path clip-path="url(#SVGID_4_)" fill="#C9C9C9" d="M219.545,348.322c0,0.369-0.298,0.666-0.666,0.666h-10.002
			c-0.369,0-0.667-0.297-0.667-0.666v-9.999c0-0.367,0.298-0.665,0.667-0.665h10.002c0.368,0,0.666,0.298,0.666,0.665V348.322z"/>
		<path clip-path="url(#SVGID_4_)" fill="#C9C9C9" d="M232.011,348.322c0,0.365-0.298,0.666-0.666,0.666h-10.001
			c-0.37,0-0.668-0.297-0.668-0.666v-9.999c0-0.367,0.298-0.665,0.668-0.665h10.001c0.368,0,0.666,0.298,0.666,0.665V348.322z"/>
		<path clip-path="url(#SVGID_4_)" fill="#C9C9C9" d="M244.478,348.322c0,0.365-0.298,0.666-0.667,0.666h-10.002
			c-0.366,0-0.666-0.297-0.666-0.666v-9.999c0-0.367,0.3-0.665,0.666-0.665h10.002c0.369,0,0.667,0.298,0.667,0.665V348.322z"/>
		<path clip-path="url(#SVGID_4_)" fill="#C9C9C9" d="M256.943,348.322c0,0.365-0.297,0.666-0.667,0.666h-10
			c-0.369,0-0.667-0.301-0.667-0.666v-9.999c0-0.367,0.297-0.665,0.667-0.665h10c0.37,0,0.667,0.298,0.667,0.665V348.322z"/>
		<path clip-path="url(#SVGID_4_)" fill="#C9C9C9" d="M263.177,336.312c0,0.369-0.297,0.665-0.668,0.665h-10.001
			c-0.365,0-0.665-0.296-0.665-0.665v-9.998c0-0.366,0.3-0.665,0.665-0.665h10.001c0.369,0,0.668,0.299,0.668,0.665V336.312z"/>
		<path clip-path="url(#SVGID_4_)" fill="#C9C9C9" d="M253.843,312.09c0,0.37-0.299,0.667-0.667,0.667h-9.999
			c-0.372,0-0.669-0.297-0.669-0.667v-9.997c0-0.366,0.297-0.665,0.666-0.665h10.002c0.368,0,0.667,0.299,0.667,0.665V312.09z"/>
		<path clip-path="url(#SVGID_4_)" fill="#C9C9C9" d="M266.309,312.09c0,0.37-0.299,0.667-0.666,0.667h-10.002
			c-0.368,0-0.666-0.297-0.666-0.667v-9.997c0-0.366,0.298-0.665,0.666-0.665h10.002c0.367,0,0.666,0.299,0.666,0.665V312.09z"/>
		<path clip-path="url(#SVGID_4_)" fill="#C9C9C9" d="M135.336,324.227c0,0.369-0.298,0.667-0.665,0.667h-10.003
			c-0.368,0-0.665-0.298-0.665-0.667v-9.999c0-0.364,0.297-0.664,0.665-0.664h10.003c0.367,0,0.665,0.3,0.665,0.664V324.227z"/>
		<path clip-path="url(#SVGID_4_)" fill="#C9C9C9" d="M147.804,324.227c0,0.369-0.299,0.667-0.667,0.667h-10.002
			c-0.367,0-0.666-0.298-0.666-0.667l-0.001-9.999c0.001-0.364,0.3-0.664,0.667-0.664h10.002c0.368,0,0.667,0.298,0.667,0.664
			V324.227z"/>
		<path clip-path="url(#SVGID_4_)" fill="#C9C9C9" d="M160.27,324.227c0,0.369-0.298,0.667-0.666,0.667h-10.002
			c-0.369,0-0.666-0.298-0.666-0.667v-9.999c0-0.366,0.297-0.664,0.666-0.664h10.002c0.368,0,0.666,0.298,0.666,0.664V324.227z"/>
		<path clip-path="url(#SVGID_4_)" fill="#C9C9C9" d="M172.736,324.227c0,0.368-0.299,0.667-0.666,0.667h-10.003
			c-0.367,0-0.664-0.298-0.664-0.667v-9.999c0-0.366,0.297-0.664,0.664-0.664h10.003c0.367,0,0.666,0.298,0.666,0.664V324.227z"/>
		<path clip-path="url(#SVGID_4_)" fill="#C9C9C9" d="M185.202,324.227c0,0.368-0.299,0.667-0.666,0.667h-10.002
			c-0.367,0-0.665-0.298-0.665-0.667v-9.999c0-0.366,0.298-0.664,0.665-0.664h10.002c0.367,0,0.666,0.298,0.666,0.664V324.227z"/>
		<path clip-path="url(#SVGID_4_)" fill="#C9C9C9" d="M197.669,324.227c0,0.368-0.298,0.667-0.667,0.667H187
			c-0.367,0-0.667-0.299-0.667-0.667v-9.999c0-0.366,0.3-0.664,0.667-0.664h10.002c0.369,0,0.667,0.298,0.667,0.664V324.227z"/>
		<path clip-path="url(#SVGID_4_)" fill="#C9C9C9" d="M210.136,324.227c0,0.368-0.299,0.667-0.667,0.667h-10.002
			c-0.368,0-0.665-0.299-0.665-0.667v-9.999c0-0.366,0.297-0.664,0.665-0.664h10.002c0.368,0,0.667,0.298,0.667,0.664V324.227z"/>
		<path clip-path="url(#SVGID_4_)" fill="#C9C9C9" d="M222.602,324.227c0,0.368-0.298,0.667-0.666,0.667h-10.002
			c-0.369,0-0.666-0.299-0.666-0.667v-9.999c0-0.366,0.297-0.664,0.666-0.664h10.002c0.368,0,0.666,0.298,0.666,0.664V324.227z"/>
		<path clip-path="url(#SVGID_4_)" fill="#C9C9C9" d="M235.068,324.227c0,0.368-0.299,0.667-0.667,0.667H224.4
			c-0.369,0-0.667-0.299-0.667-0.667v-9.999c0-0.366,0.298-0.664,0.667-0.664h10.001c0.368,0,0.667,0.298,0.667,0.664V324.227z"/>
		<path clip-path="url(#SVGID_4_)" fill="#C9C9C9" d="M247.534,324.225c0,0.37-0.299,0.667-0.666,0.667l-10,0.002
			c-0.371,0-0.668-0.299-0.668-0.669v-9.996c0-0.367,0.297-0.665,0.668-0.666h10c0.367,0,0.666,0.299,0.666,0.665V324.225z"/>
		<path clip-path="url(#SVGID_4_)" fill="#C9C9C9" d="M260,324.225c0,0.37-0.297,0.667-0.663,0.667l-10.003,0.002
			c-0.369-0.002-0.666-0.299-0.666-0.669l-0.001-9.997c0.001-0.366,0.298-0.665,0.665-0.665h10.002c0.369,0,0.666,0.299,0.666,0.665
			V324.225z"/>
		<path clip-path="url(#SVGID_4_)" fill="#C9C9C9" d="M272.467,324.225c0,0.37-0.298,0.667-0.666,0.667h-10.003
			c-0.365,0-0.665-0.297-0.665-0.667l-0.001-9.997c0.001-0.366,0.299-0.665,0.666-0.665h10.003c0.368,0,0.666,0.299,0.666,0.665
			V324.225z"/>
		<path clip-path="url(#SVGID_4_)" fill="#C9C9C9" d="M284.934,324.225c0,0.37-0.298,0.667-0.667,0.667h-10.001
			c-0.369,0-0.665-0.297-0.665-0.667v-9.997c0-0.366,0.296-0.665,0.665-0.665h10.001c0.369,0,0.667,0.299,0.667,0.665V324.225z"/>
		<path clip-path="url(#SVGID_4_)" fill="#C9C9C9" d="M122.697,323.828c0,0.368-0.298,0.666-0.666,0.666h-15.988
			c-0.367,0-0.666-0.297-0.666-0.666v-9.199c0-0.367,0.299-0.665,0.666-0.665h15.988c0.368,0,0.666,0.298,0.666,0.665V323.828z"/>
		<path clip-path="url(#SVGID_4_)" fill="#C9C9C9" d="M125.651,335.876c-0.001,0.366-0.297,0.666-0.666,0.666h-18.942
			c-0.367,0-0.666-0.3-0.666-0.666v-9.121c0-0.366,0.299-0.666,0.666-0.666h18.942c0.369,0,0.665,0.3,0.666,0.666V335.876z"/>
		<path clip-path="url(#SVGID_4_)" fill="#C9C9C9" d="M132.036,347.922c0,0.368-0.298,0.664-0.666,0.664h-25.326
			c-0.368,0-0.666-0.296-0.666-0.664v-9.195c0-0.368,0.298-0.665,0.665-0.665l25.327-0.001c0.368,0.001,0.666,0.298,0.666,0.666
			V347.922z"/>
		<path clip-path="url(#SVGID_4_)" fill="#C9C9C9" d="M285.043,311.694c0,0.366-0.299,0.665-0.666,0.665H268.39
			c-0.367,0-0.665-0.299-0.665-0.665l-0.002-9.202c0-0.365,0.3-0.666,0.667-0.664l15.987-0.002c0.367,0,0.666,0.301,0.666,0.666
			V311.694z"/>
		<path clip-path="url(#SVGID_4_)" fill="#C9C9C9" d="M285.044,335.873c0,0.367-0.3,0.666-0.665,0.666h-18.941
			c-0.369,0-0.668-0.299-0.668-0.666v-9.121c0-0.366,0.298-0.663,0.668-0.663l18.939-0.002c0.367,0,0.666,0.299,0.666,0.665
			L285.044,335.873z"/>
		<path clip-path="url(#SVGID_4_)" fill="#C9C9C9" d="M285.044,347.92c0,0.368-0.3,0.666-0.665,0.666h-25.327
			c-0.368,0-0.667-0.298-0.667-0.664v-9.198c0-0.366,0.299-0.665,0.667-0.665h25.327c0.365,0,0.665,0.299,0.665,0.665V347.92z"/>
		<path clip-path="url(#SVGID_4_)" fill="#C9C9C9" d="M116.393,361.725c0,0.369-0.297,0.665-0.665,0.665h-9.684
			c-0.368,0-0.666-0.296-0.666-0.665v-10.796c0-0.368,0.298-0.665,0.666-0.665h9.684c0.368,0,0.665,0.297,0.665,0.665V361.725z"/>
		<path clip-path="url(#SVGID_4_)" fill="#C9C9C9" d="M128.845,361.725c0,0.369-0.298,0.665-0.665,0.665h-9.685
			c-0.366,0-0.665-0.296-0.665-0.665l-0.001-10.796c0-0.368,0.3-0.665,0.666-0.665h9.685c0.367,0,0.665,0.297,0.665,0.665V361.725z"
			/>
		<path clip-path="url(#SVGID_4_)" fill="#C9C9C9" d="M141.296,361.725c0,0.369-0.299,0.665-0.666,0.665h-9.683
			c-0.368,0-0.666-0.296-0.666-0.665v-10.796c0-0.368,0.298-0.665,0.665-0.665h9.684c0.367,0,0.666,0.297,0.666,0.665V361.725z"/>
		<path clip-path="url(#SVGID_4_)" fill="#C9C9C9" d="M156.939,361.725c0,0.369-0.383,0.665-0.858,0.665h-12.49
			c-0.475,0-0.859-0.296-0.859-0.665v-10.796c0-0.368,0.385-0.665,0.859-0.665h12.49c0.476,0,0.858,0.296,0.858,0.665V361.725z"/>
		<path clip-path="url(#SVGID_4_)" fill="#C9C9C9" d="M219.754,361.725c0,0.366-0.298,0.665-0.666,0.665h-60.046
			c-0.368,0-0.667-0.296-0.667-0.665v-10.796c0-0.368,0.299-0.665,0.667-0.665h60.046c0.368,0,0.666,0.296,0.666,0.665V361.725z"/>
		<path clip-path="url(#SVGID_4_)" fill="#C9C9C9" d="M235.079,361.722c0,0.37-0.298,0.668-0.666,0.668h-12.875
			c-0.368,0-0.663-0.298-0.663-0.665v-10.796c0-0.369,0.295-0.665,0.663-0.665l12.875-0.003c0.368,0,0.666,0.299,0.666,0.668
			V361.722z"/>
		<path clip-path="url(#SVGID_4_)" fill="#C9C9C9" d="M247.69,361.722c0,0.37-0.299,0.668-0.666,0.665l-9.763,0.003
			c-0.369,0-0.667-0.298-0.667-0.665v-10.796c0-0.369,0.298-0.665,0.667-0.668h9.763c0.367,0,0.666,0.299,0.666,0.666V361.722z"/>
		<path clip-path="url(#SVGID_4_)" fill="#C9C9C9" d="M260.143,361.722c0,0.37-0.299,0.665-0.666,0.665h-9.523
			c-0.368,0.003-0.665-0.295-0.665-0.665v-4.73c0-0.367,0.297-0.666,0.665-0.666h9.523c0.367,0,0.666,0.299,0.666,0.664V361.722z"/>
		<path clip-path="url(#SVGID_4_)" fill="#C9C9C9" d="M272.592,361.722c0,0.37-0.295,0.665-0.665,0.665h-9.522
			c-0.367,0-0.666-0.295-0.666-0.665v-4.732c0-0.365,0.299-0.664,0.666-0.664h9.522c0.37,0,0.665,0.299,0.665,0.664V361.722z"/>
		<path clip-path="url(#SVGID_4_)" fill="#C9C9C9" d="M272.592,355.659c0,0.367-0.295,0.666-0.665,0.666h-9.522
			c-0.367,0-0.666-0.297-0.666-0.666v-4.732c0-0.367,0.299-0.666,0.666-0.666h9.522c0.37,0,0.665,0.299,0.665,0.666V355.659z"/>
		<path clip-path="url(#SVGID_4_)" fill="#C9C9C9" d="M285.044,361.722c0,0.37-0.3,0.665-0.665,0.665h-9.526
			c-0.364,0-0.664-0.295-0.664-0.665v-4.732c0-0.365,0.3-0.664,0.664-0.664l9.526-0.002c0.365,0.002,0.665,0.301,0.665,0.666
			V361.722z"/>
		<path clip-path="url(#SVGID_4_)" fill="#EFEEEE" d="M116.711,298.34c0,0.369-0.297,0.667-0.666,0.667h-10.002
			c-0.367,0-0.666-0.298-0.666-0.667v-5.45c0-0.367,0.299-0.666,0.666-0.666h10.002c0.369,0,0.666,0.299,0.666,0.666V298.34z"/>
		<path clip-path="url(#SVGID_4_)" fill="#EFEEEE" d="M129.669,298.34c0,0.369-0.297,0.667-0.666,0.667h-10.002
			c-0.366,0-0.664-0.298-0.664-0.667v-5.45c0-0.367,0.298-0.666,0.664-0.666h10.002c0.369,0,0.666,0.299,0.666,0.666V298.34z"/>
		<path clip-path="url(#SVGID_4_)" fill="#EFEEEE" d="M142.627,298.34c0,0.369-0.296,0.667-0.665,0.667h-10.003
			c-0.368,0-0.665-0.298-0.665-0.667v-5.45c0-0.367,0.297-0.666,0.665-0.666h10.003c0.369,0,0.665,0.299,0.665,0.666V298.34z"/>
		<path clip-path="url(#SVGID_4_)" fill="#EFEEEE" d="M155.586,298.34c0,0.369-0.297,0.667-0.667,0.666l-10.002,0.001
			c-0.366,0-0.666-0.298-0.666-0.667v-5.45c0-0.368,0.3-0.666,0.666-0.666h10.002c0.37,0,0.667,0.298,0.667,0.666V298.34z"/>
		<path clip-path="url(#SVGID_4_)" fill="#EFEEEE" d="M168.544,298.34c0,0.369-0.298,0.666-0.667,0.666h-10.002
			c-0.367,0-0.665-0.297-0.665-0.666v-5.45c0-0.368,0.298-0.666,0.665-0.666h10.002c0.369,0,0.667,0.298,0.667,0.666V298.34z"/>
		<path clip-path="url(#SVGID_4_)" fill="#EFEEEE" d="M181.503,298.34c0,0.369-0.3,0.666-0.667,0.666h-10.003
			c-0.368,0-0.666-0.297-0.666-0.666v-5.45c0-0.368,0.298-0.666,0.666-0.666h10.003c0.367,0,0.667,0.298,0.667,0.666V298.34z"/>
		<path clip-path="url(#SVGID_4_)" fill="#EFEEEE" d="M194.459,298.34c0.001,0.369-0.298,0.666-0.665,0.666h-10.003
			c-0.367,0-0.666-0.297-0.666-0.666v-5.45c0-0.368,0.299-0.666,0.665-0.666h10.004c0.367,0,0.665,0.298,0.665,0.666V298.34z"/>
		<path clip-path="url(#SVGID_4_)" fill="#EFEEEE" d="M207.418,298.34c0,0.365-0.298,0.666-0.666,0.666h-10.001
			c-0.37,0-0.666-0.297-0.666-0.666v-5.45c0-0.368,0.296-0.666,0.666-0.666h10.001c0.368,0,0.666,0.298,0.666,0.666V298.34z"/>
		<path clip-path="url(#SVGID_4_)" fill="#EFEEEE" d="M220.375,298.34c0,0.365-0.298,0.666-0.666,0.666h-10.002
			c-0.368,0-0.666-0.301-0.666-0.666v-5.45c0-0.368,0.298-0.666,0.666-0.666h10.001c0.369,0,0.667,0.298,0.667,0.666V298.34z"/>
		<path clip-path="url(#SVGID_4_)" fill="#EFEEEE" d="M233.334,298.34c0,0.365-0.299,0.666-0.667,0.666h-10.001
			c-0.37,0-0.667-0.301-0.667-0.666v-5.45c0-0.368,0.297-0.666,0.667-0.666h10.001c0.368,0,0.667,0.298,0.667,0.666V298.34z"/>
		<path clip-path="url(#SVGID_4_)" fill="#EFEEEE" d="M246.291,298.34c0,0.365-0.297,0.666-0.666,0.666h-10.003
			c-0.366,0-0.663-0.301-0.663-0.666v-5.45c0-0.368,0.297-0.666,0.663-0.666h10.003c0.369,0,0.666,0.298,0.666,0.666V298.34z"/>
		<path clip-path="url(#SVGID_4_)" fill="#EFEEEE" d="M259.249,298.34c0,0.365-0.298,0.666-0.667,0.666h-10.001
			c-0.368,0-0.666-0.301-0.666-0.666v-5.45c0-0.368,0.298-0.666,0.666-0.666h10.001c0.369,0,0.667,0.298,0.667,0.666V298.34z"/>
		<path clip-path="url(#SVGID_4_)" fill="#EFEEEE" d="M272.208,298.34c0,0.365-0.299,0.666-0.666,0.666H261.54
			c-0.368,0-0.666-0.301-0.666-0.666v-5.45c0-0.368,0.298-0.666,0.666-0.666h10.002c0.367,0,0.666,0.298,0.666,0.666V298.34z"/>
		<path clip-path="url(#SVGID_4_)" fill="#EFEEEE" d="M285.166,298.34c0,0.365-0.298,0.666-0.666,0.666h-10.002
			c-0.367,0-0.667-0.301-0.667-0.666v-5.45c0-0.368,0.299-0.666,0.667-0.667H284.5c0.368,0,0.666,0.299,0.666,0.667V298.34z"/>
		<path clip-path="url(#SVGID_4_)" fill="#EFEEEE" d="M116.711,311.099c0,0.368-0.297,0.665-0.666,0.665l-10.002,0.001
			c-0.367,0-0.666-0.298-0.666-0.664v-9.998c0-0.368,0.299-0.668,0.666-0.665l10.002-0.003c0.369,0,0.666,0.3,0.666,0.668V311.099z"
			/>
		<path clip-path="url(#SVGID_4_)" fill="#EFEEEE" d="M129.178,311.099c0,0.368-0.297,0.665-0.666,0.665H118.51
			c-0.367,0.001-0.666-0.297-0.666-0.665V301.1c0-0.365,0.299-0.665,0.666-0.665h10.002c0.369,0,0.666,0.3,0.666,0.665V311.099z"/>
		<path clip-path="url(#SVGID_4_)" fill="#EFEEEE" d="M141.644,311.099c0.001,0.368-0.298,0.665-0.665,0.665h-10.003
			c-0.365,0-0.664-0.297-0.664-0.665V301.1c0-0.365,0.299-0.665,0.664-0.665h10.003c0.367,0,0.665,0.3,0.665,0.665V311.099z"/>
		<path clip-path="url(#SVGID_4_)" fill="#EFEEEE" d="M154.11,311.099c0,0.368-0.298,0.665-0.663,0.665h-10.006
			c-0.365,0-0.664-0.297-0.664-0.665V301.1c0-0.365,0.299-0.665,0.664-0.665h10.004c0.367,0,0.665,0.3,0.665,0.665V311.099z"/>
		<path clip-path="url(#SVGID_4_)" fill="#EFEEEE" d="M166.577,311.099c0,0.368-0.298,0.665-0.666,0.665H155.91
			c-0.37,0-0.667-0.3-0.667-0.665V301.1c0-0.365,0.297-0.665,0.667-0.665h10.001c0.368,0,0.666,0.3,0.666,0.665V311.099z"/>
		<path clip-path="url(#SVGID_4_)" fill="#EFEEEE" d="M179.043,311.099c0.002,0.365-0.297,0.665-0.666,0.665h-10
			c-0.369,0-0.667-0.3-0.667-0.665V301.1c0-0.365,0.298-0.665,0.667-0.665h10c0.369,0,0.666,0.298,0.666,0.665V311.099z"/>
		<path clip-path="url(#SVGID_4_)" fill="#EFEEEE" d="M191.51,311.099c0,0.365-0.298,0.665-0.665,0.665h-10.004
			c-0.366,0-0.663-0.3-0.663-0.665V301.1c0-0.367,0.297-0.665,0.663-0.665h10.004c0.367,0,0.665,0.298,0.665,0.665V311.099z"/>
		<path clip-path="url(#SVGID_4_)" fill="#EFEEEE" d="M203.978,311.099c0,0.365-0.299,0.665-0.667,0.665h-10.002
			c-0.368,0-0.665-0.3-0.665-0.665V301.1c0-0.367,0.297-0.665,0.665-0.665h10.002c0.368,0,0.667,0.298,0.667,0.665V311.099z"/>
		<path clip-path="url(#SVGID_4_)" fill="#EFEEEE" d="M216.443,311.099c0,0.365-0.298,0.665-0.667,0.665h-10.002
			c-0.368,0-0.665-0.3-0.665-0.665V301.1c0-0.367,0.297-0.665,0.665-0.665h10.002c0.369,0,0.667,0.298,0.667,0.665V311.099z"/>
		<path clip-path="url(#SVGID_4_)" fill="#EFEEEE" d="M228.909,311.099c0,0.365-0.298,0.665-0.665,0.665h-10.002
			c-0.368,0-0.668-0.3-0.668-0.665V301.1c0-0.367,0.3-0.665,0.666-0.665h10.004c0.367,0,0.665,0.298,0.665,0.665V311.099z"/>
		<path clip-path="url(#SVGID_4_)" fill="#EFEEEE" d="M241.375,311.099c0,0.365-0.298,0.665-0.664,0.665h-10.003
			c-0.369,0-0.665-0.3-0.665-0.665V301.1c0-0.367,0.296-0.665,0.665-0.665h10.001c0.368,0,0.666,0.298,0.666,0.665V311.099z"/>
		<path clip-path="url(#SVGID_4_)" fill="#EFEEEE" d="M138.512,335.319c0,0.367-0.299,0.666-0.664,0.666h-10.004
			c-0.367,0-0.664-0.299-0.664-0.666l-0.002-9.997c0-0.366,0.299-0.667,0.666-0.667h10.004c0.365,0,0.664,0.301,0.664,0.667V335.319
			z"/>
		<path clip-path="url(#SVGID_4_)" fill="#EFEEEE" d="M150.979,335.319c0,0.367-0.298,0.666-0.666,0.666h-10.003
			c-0.367,0-0.665-0.299-0.665-0.666v-9.997c0-0.366,0.298-0.667,0.665-0.667h10.003c0.368,0,0.666,0.301,0.666,0.667V335.319z"/>
		<path clip-path="url(#SVGID_4_)" fill="#EFEEEE" d="M163.445,335.317c0,0.369-0.298,0.667-0.665,0.667l-10.003,0.001
			c-0.368,0-0.666-0.299-0.666-0.666v-9.997c0-0.369,0.298-0.667,0.666-0.667h10.003c0.367,0,0.664,0.298,0.665,0.667V335.317z"/>
		<path clip-path="url(#SVGID_4_)" fill="#EFEEEE" d="M175.911,335.317c0,0.369-0.298,0.667-0.665,0.667h-10.002
			c-0.367,0-0.667-0.298-0.667-0.667v-9.995c0-0.369,0.3-0.667,0.667-0.667h10.001c0.368,0,0.666,0.298,0.666,0.667V335.317z"/>
		<path clip-path="url(#SVGID_4_)" fill="#EFEEEE" d="M188.379,335.317c0,0.369-0.298,0.667-0.667,0.667h-10.001
			c-0.369,0-0.668-0.298-0.668-0.667v-9.995c0-0.369,0.298-0.667,0.668-0.667h10.001c0.369,0,0.667,0.298,0.667,0.667V335.317z"/>
		<path clip-path="url(#SVGID_4_)" fill="#EFEEEE" d="M200.845,335.317c0,0.369-0.299,0.667-0.666,0.667h-10.001
			c-0.369,0-0.668-0.298-0.668-0.667v-9.995c0-0.369,0.299-0.667,0.668-0.667h10.001c0.367,0,0.666,0.298,0.666,0.667V335.317z"/>
		<path clip-path="url(#SVGID_4_)" fill="#EFEEEE" d="M213.311,335.317c0,0.369-0.297,0.667-0.666,0.667h-10.001
			c-0.369,0-0.667-0.298-0.667-0.667v-9.995c0-0.369,0.298-0.667,0.667-0.667h10.001c0.369,0,0.666,0.298,0.666,0.667V335.317z"/>
		<path clip-path="url(#SVGID_4_)" fill="#EFEEEE" d="M225.776,335.317c0,0.369-0.298,0.667-0.665,0.667h-10.002
			c-0.369,0-0.666-0.298-0.666-0.667v-9.995c0-0.369,0.297-0.667,0.666-0.667h10.002c0.367,0,0.665,0.298,0.665,0.667V335.317z"/>
		<path clip-path="url(#SVGID_4_)" fill="#EFEEEE" d="M238.244,335.317c0,0.369-0.299,0.667-0.667,0.667h-10.002
			c-0.367,0-0.666-0.298-0.666-0.667v-9.995c0-0.369,0.298-0.667,0.666-0.667h10.002c0.368,0,0.667,0.298,0.667,0.664V335.317z"/>
		<path clip-path="url(#SVGID_4_)" fill="#EFEEEE" d="M250.711,335.317c0,0.369-0.299,0.666-0.666,0.667h-10.004
			c-0.367,0-0.665-0.298-0.665-0.667v-9.998c0-0.366,0.298-0.664,0.665-0.664l10.004-0.002c0.367,0.002,0.666,0.3,0.666,0.666
			V335.317z"/>
		<path clip-path="url(#SVGID_4_)" fill="#EFEEEE" d="M144.747,347.329c0,0.366-0.3,0.664-0.667,0.664h-10.002
			c-0.369,0-0.666-0.298-0.666-0.664v-10c0-0.365,0.297-0.663,0.666-0.663h10.002c0.367,0,0.667,0.297,0.667,0.663V347.329z"/>
		<path clip-path="url(#SVGID_4_)" fill="#EFEEEE" d="M157.211,347.329c0,0.366-0.297,0.664-0.664,0.664h-10.004
			c-0.366,0-0.663-0.298-0.663-0.664v-10c0-0.366,0.297-0.663,0.663-0.663h10.004c0.367,0,0.664,0.297,0.664,0.663V347.329z"/>
		<path clip-path="url(#SVGID_4_)" fill="#EFEEEE" d="M169.679,347.329c0,0.366-0.297,0.664-0.667,0.664h-10
			c-0.37,0-0.667-0.298-0.667-0.664v-10c0-0.366,0.297-0.663,0.667-0.663h10c0.37,0,0.667,0.297,0.667,0.663V347.329z"/>
		<path clip-path="url(#SVGID_4_)" fill="#EFEEEE" d="M182.146,347.329c0,0.366-0.298,0.664-0.665,0.664h-10.004
			c-0.368,0-0.664-0.298-0.664-0.664v-10c0-0.366,0.296-0.663,0.664-0.663h10.004c0.367-0.004,0.665,0.297,0.665,0.663V347.329z"/>
		<path clip-path="url(#SVGID_4_)" fill="#EFEEEE" d="M194.612,347.325c0,0.37-0.299,0.668-0.665,0.668h-10.005
			c-0.366,0-0.664-0.298-0.664-0.664v-10c0-0.366,0.298-0.667,0.664-0.667h10.005c0.366,0,0.665,0.301,0.664,0.667L194.612,347.325z
			"/>
		<path clip-path="url(#SVGID_4_)" fill="#EFEEEE" d="M207.078,347.325c0,0.37-0.298,0.668-0.667,0.668H196.41
			c-0.366,0-0.666-0.298-0.666-0.668v-9.996c0-0.366,0.3-0.667,0.666-0.667h10.001c0.369,0,0.667,0.301,0.667,0.667V347.325z"/>
		<path clip-path="url(#SVGID_4_)" fill="#EFEEEE" d="M219.545,347.325c0,0.37-0.298,0.668-0.666,0.668h-10.002
			c-0.369,0-0.667-0.298-0.667-0.668v-9.996c0-0.366,0.298-0.667,0.667-0.667h10.002c0.368,0,0.666,0.301,0.666,0.667V347.325z"/>
		<path clip-path="url(#SVGID_4_)" fill="#EFEEEE" d="M232.011,347.325c0,0.37-0.298,0.668-0.666,0.668h-10.001
			c-0.37,0-0.668-0.298-0.668-0.668v-9.996c0-0.366,0.298-0.667,0.668-0.667h10.001c0.368,0,0.666,0.301,0.666,0.667V347.325z"/>
		<path clip-path="url(#SVGID_4_)" fill="#EFEEEE" d="M244.478,347.325c0,0.37-0.298,0.668-0.667,0.666l-10.002,0.002
			c-0.366,0-0.666-0.298-0.666-0.668v-9.996c0-0.366,0.3-0.667,0.666-0.667h10.002c0.369,0,0.667,0.301,0.667,0.667V347.325z"/>
		<path clip-path="url(#SVGID_4_)" fill="#EFEEEE" d="M256.943,347.325c0,0.37-0.297,0.666-0.667,0.666l-10,0.002
			c-0.37-0.002-0.667-0.298-0.667-0.668v-9.996c0-0.366,0.297-0.667,0.667-0.667h10c0.37,0,0.667,0.301,0.667,0.667V347.325z"/>
		<path clip-path="url(#SVGID_4_)" fill="#EFEEEE" d="M263.177,335.317c0,0.369-0.299,0.666-0.668,0.666h-10.001
			c-0.365,0-0.665-0.297-0.665-0.666v-9.998c0-0.366,0.3-0.666,0.665-0.666h10.001c0.369,0,0.668,0.3,0.668,0.666V335.317z"/>
		<path clip-path="url(#SVGID_4_)" fill="#EFEEEE" d="M253.843,311.099c0,0.365-0.299,0.665-0.667,0.665h-9.999
			c-0.372,0-0.669-0.3-0.669-0.665V301.1c0-0.367,0.297-0.665,0.666-0.665h10.002c0.368,0,0.667,0.298,0.667,0.665V311.099z"/>
		<path clip-path="url(#SVGID_4_)" fill="#EFEEEE" d="M266.309,311.096c0,0.368-0.299,0.668-0.666,0.668h-10.002
			c-0.368,0-0.666-0.3-0.666-0.665V301.1c-0.001-0.367,0.298-0.665,0.666-0.665l10.002-0.001c0.367,0,0.666,0.299,0.666,0.665
			V311.096z"/>
		<path clip-path="url(#SVGID_4_)" fill="#EFEEEE" d="M135.336,323.231c0,0.369-0.298,0.666-0.665,0.666h-10.003
			c-0.368,0-0.665-0.297-0.665-0.665v-10c0-0.364,0.297-0.664,0.665-0.664h10.003c0.367,0,0.665,0.3,0.665,0.664V323.231z"/>
		<path clip-path="url(#SVGID_4_)" fill="#EFEEEE" d="M147.804,323.231c0,0.369-0.299,0.666-0.667,0.666h-10.002
			c-0.367,0-0.666-0.297-0.666-0.666l-0.001-9.999c0-0.364,0.3-0.664,0.667-0.664h10.001c0.369,0,0.668,0.3,0.668,0.664V323.231z"/>
		<path clip-path="url(#SVGID_4_)" fill="#EFEEEE" d="M160.27,323.231c0,0.369-0.298,0.666-0.666,0.666h-10.002
			c-0.367,0-0.666-0.297-0.666-0.666v-9.999c0-0.364,0.297-0.664,0.666-0.664h10.002c0.368,0,0.666,0.3,0.666,0.664V323.231z"/>
		<path clip-path="url(#SVGID_4_)" fill="#EFEEEE" d="M172.736,323.231c0,0.369-0.299,0.666-0.666,0.666h-10.003
			c-0.367,0-0.664-0.297-0.664-0.666v-9.999c0-0.364,0.297-0.664,0.664-0.664h10.003c0.367,0,0.666,0.3,0.666,0.664V323.231z"/>
		<path clip-path="url(#SVGID_4_)" fill="#EFEEEE" d="M185.202,323.231c0,0.368-0.299,0.666-0.666,0.666h-10.002
			c-0.367,0-0.665-0.297-0.665-0.666v-9.999c0-0.364,0.298-0.664,0.665-0.664h10.002c0.367,0,0.666,0.3,0.666,0.664V323.231z"/>
		<path clip-path="url(#SVGID_4_)" fill="#EFEEEE" d="M197.669,323.231c0,0.368-0.298,0.666-0.667,0.666H187
			c-0.367,0-0.667-0.298-0.667-0.666v-9.999c0-0.364,0.3-0.664,0.667-0.664h10.002c0.369,0,0.667,0.297,0.667,0.664V323.231z"/>
		<path clip-path="url(#SVGID_4_)" fill="#EFEEEE" d="M210.136,323.231c0,0.368-0.299,0.666-0.667,0.666h-10.002
			c-0.368,0-0.665-0.298-0.665-0.666v-9.999c0-0.367,0.297-0.664,0.665-0.664h10.002c0.368,0,0.667,0.297,0.667,0.664V323.231z"/>
		<path clip-path="url(#SVGID_4_)" fill="#EFEEEE" d="M222.602,323.231c0,0.368-0.298,0.666-0.666,0.666h-10.002
			c-0.369,0-0.666-0.298-0.666-0.666v-9.999c0-0.367,0.297-0.664,0.666-0.664h10.002c0.368,0,0.666,0.297,0.666,0.664V323.231z"/>
		<path clip-path="url(#SVGID_4_)" fill="#EFEEEE" d="M235.068,323.231c0,0.368-0.299,0.666-0.667,0.666H224.4
			c-0.367,0-0.667-0.298-0.667-0.666v-9.999c0-0.367,0.298-0.664,0.667-0.664h10.001c0.368,0,0.667,0.297,0.667,0.664V323.231z"/>
		<path clip-path="url(#SVGID_4_)" fill="#EFEEEE" d="M247.534,323.231c0,0.368-0.299,0.666-0.666,0.666h-10
			c-0.371,0-0.668-0.298-0.668-0.666v-9.999c0-0.367,0.297-0.664,0.666-0.664h10.002c0.367,0,0.666,0.297,0.666,0.664V323.231z"/>
		<path clip-path="url(#SVGID_4_)" fill="#EFEEEE" d="M260,323.231c0,0.368-0.297,0.666-0.663,0.666h-10.003
			c-0.369,0-0.666-0.298-0.666-0.666l-0.001-9.999c0-0.367,0.298-0.664,0.665-0.664h10.005c0.366,0,0.663,0.297,0.663,0.664V323.231
			z"/>
		<path clip-path="url(#SVGID_4_)" fill="#EFEEEE" d="M272.467,323.231c0,0.368-0.298,0.666-0.666,0.666h-10.003
			c-0.365,0-0.665-0.298-0.665-0.666l-0.001-9.999c0.001-0.367,0.299-0.664,0.666-0.664h10.003c0.368,0,0.666,0.297,0.666,0.664
			V323.231z"/>
		<path clip-path="url(#SVGID_4_)" fill="#EFEEEE" d="M284.934,323.231c0,0.368-0.298,0.666-0.667,0.666h-10.001
			c-0.369,0-0.665-0.298-0.665-0.666v-9.999c0-0.367,0.296-0.664,0.665-0.664h10.001c0.369,0,0.667,0.297,0.667,0.664V323.231z"/>
		<path clip-path="url(#SVGID_4_)" fill="#EFEEEE" d="M122.697,322.835c0,0.368-0.298,0.664-0.666,0.664h-15.988
			c-0.367,0-0.666-0.296-0.666-0.664v-9.201c0-0.368,0.299-0.664,0.666-0.664h15.988c0.368,0,0.666,0.296,0.666,0.664V322.835z"/>
		<path clip-path="url(#SVGID_4_)" fill="#EFEEEE" d="M125.651,334.881c-0.001,0.367-0.297,0.666-0.666,0.666h-18.942
			c-0.367,0-0.666-0.299-0.666-0.666v-9.119c0-0.368,0.299-0.666,0.666-0.666l18.942-0.003c0.369,0,0.665,0.301,0.665,0.669
			L125.651,334.881z"/>
		<path clip-path="url(#SVGID_4_)" fill="#EFEEEE" d="M132.036,346.926c0,0.369-0.298,0.668-0.666,0.668h-25.327
			c-0.367,0-0.665-0.299-0.665-0.668v-9.194c0-0.366,0.298-0.664,0.665-0.664h25.327c0.368,0,0.666,0.296,0.666,0.664V346.926z"/>
		<path clip-path="url(#SVGID_4_)" fill="#EFEEEE" d="M285.043,310.698c0,0.368-0.299,0.666-0.666,0.666H268.39
			c-0.367,0-0.665-0.298-0.665-0.666l-0.002-9.2c0-0.367,0.3-0.665,0.667-0.665h15.987c0.367,0,0.666,0.298,0.666,0.665V310.698z"/>
		<path clip-path="url(#SVGID_4_)" fill="#EFEEEE" d="M285.044,334.88c-0.001,0.365-0.3,0.664-0.665,0.664h-18.941
			c-0.369,0-0.668-0.299-0.668-0.664v-9.121c0-0.368,0.298-0.666,0.668-0.666h18.939c0.367,0,0.666,0.298,0.666,0.666
			L285.044,334.88z"/>
		<path clip-path="url(#SVGID_4_)" fill="#EFEEEE" d="M285.044,346.926c0,0.368-0.3,0.666-0.665,0.666h-25.327
			c-0.367,0-0.667-0.298-0.667-0.666v-9.195c0-0.367,0.299-0.665,0.667-0.665h25.325c0.367,0,0.666,0.295,0.667,0.665V346.926z"/>
		<path clip-path="url(#SVGID_4_)" fill="#EFEEEE" d="M116.393,360.729c0,0.368-0.297,0.666-0.665,0.666h-9.684
			c-0.368,0-0.666-0.298-0.666-0.666v-10.796c0-0.366,0.298-0.666,0.666-0.666h9.684c0.368,0,0.665,0.3,0.665,0.666V360.729z"/>
		<path clip-path="url(#SVGID_4_)" fill="#EFEEEE" d="M128.845,360.729c0,0.368-0.298,0.666-0.665,0.666h-9.685
			c-0.366,0-0.666-0.298-0.665-0.666l-0.001-10.796c0-0.366,0.3-0.666,0.666-0.666h9.685c0.367,0,0.665,0.298,0.665,0.666V360.729z"
			/>
		<path clip-path="url(#SVGID_4_)" fill="#EFEEEE" d="M141.296,360.729c0,0.368-0.299,0.666-0.666,0.666h-9.683
			c-0.368,0-0.666-0.298-0.666-0.666v-10.796c0-0.368,0.298-0.666,0.665-0.666h9.684c0.367,0,0.666,0.298,0.666,0.666V360.729z"/>
		<path clip-path="url(#SVGID_4_)" fill="#EFEEEE" d="M156.939,360.729c0,0.368-0.383,0.666-0.858,0.666h-12.49
			c-0.475,0-0.859-0.298-0.859-0.666v-10.796c0-0.368,0.385-0.666,0.859-0.666h12.49c0.476,0,0.858,0.298,0.858,0.664V360.729z"/>
		<path clip-path="url(#SVGID_4_)" fill="#EFEEEE" d="M219.754,360.729c0,0.366-0.298,0.666-0.666,0.663l-60.046,0.003
			c-0.368,0-0.667-0.298-0.667-0.666v-10.796c0-0.368,0.299-0.666,0.667-0.666h60.046c0.368,0,0.666,0.298,0.666,0.664V360.729z"/>
		<path clip-path="url(#SVGID_4_)" fill="#EFEEEE" d="M235.079,360.729c0,0.366-0.298,0.663-0.666,0.663h-12.875
			c-0.368,0-0.663-0.297-0.663-0.663v-10.798c0-0.366,0.295-0.664,0.663-0.664h12.875c0.368,0,0.666,0.298,0.666,0.664V360.729z"/>
		<path clip-path="url(#SVGID_4_)" fill="#EFEEEE" d="M247.69,360.729c0,0.366-0.299,0.663-0.666,0.663h-9.763
			c-0.369,0-0.667-0.297-0.667-0.663v-10.798c0-0.366,0.298-0.664,0.667-0.664h9.763c0.367,0,0.666,0.298,0.666,0.664V360.729z"/>
		<path clip-path="url(#SVGID_4_)" fill="#EFEEEE" d="M260.143,360.729c0,0.366-0.299,0.663-0.666,0.663h-9.523
			c-0.368,0-0.665-0.297-0.665-0.663v-4.733c0-0.368,0.297-0.666,0.665-0.666h9.523c0.367,0,0.666,0.298,0.666,0.666V360.729z"/>
		<path clip-path="url(#SVGID_4_)" fill="#EFEEEE" d="M272.592,360.729c0,0.366-0.295,0.663-0.665,0.663h-9.522
			c-0.367,0-0.666-0.297-0.666-0.663v-4.733c0-0.368,0.299-0.666,0.666-0.666h9.522c0.37,0,0.665,0.298,0.665,0.666V360.729z"/>
		<path clip-path="url(#SVGID_4_)" fill="#EFEEEE" d="M272.592,354.664c0,0.368-0.295,0.666-0.665,0.666h-9.522
			c-0.367,0-0.666-0.298-0.666-0.666v-4.732c0-0.366,0.299-0.664,0.666-0.664h9.522c0.37,0,0.665,0.298,0.665,0.664V354.664z"/>
		<path clip-path="url(#SVGID_4_)" fill="#EFEEEE" d="M285.044,360.729c0,0.366-0.3,0.663-0.665,0.663h-9.526
			c-0.364,0-0.664-0.297-0.664-0.663v-4.733c0-0.368,0.3-0.666,0.664-0.666h9.526c0.365,0,0.665,0.298,0.665,0.666V360.729z"/>
		<rect x="161.129" y="222.627" clip-path="url(#SVGID_4_)" fill="#CAC9C9" width="77.744" height="33.876"/>
		<rect x="151.16" y="248.53" clip-path="url(#SVGID_4_)" fill="#EFEFEF" width="97.678" height="7.973"/>
		<path clip-path="url(#SVGID_4_)" fill="#EFEFEF" d="M333.789,220.659c0,4.401-3.57,7.972-7.973,7.972H74.185
			c-4.403,0-7.974-3.57-7.974-7.972V41.588c0-4.4,3.57-7.97,7.974-7.97h251.632c4.402,0,7.973,3.57,7.973,7.97V220.659z"/>
		<path clip-path="url(#SVGID_4_)" fill="#010202" d="M333.789,203.357V41.587c0-4.4-3.57-7.969-7.973-7.969H74.185
			c-4.403,0-7.974,3.569-7.974,7.969v161.77H333.789z"/>
		<rect x="77.59" y="44.99" clip-path="url(#SVGID_4_)" fill="#ABD2D2" width="244.82" height="151.628"/>
		<rect x="77.59" y="44.99" clip-path="url(#SVGID_4_)" fill="#CAC9C9" width="244.82" height="12.637"/>
		<rect x="108.909" y="48.385" clip-path="url(#SVGID_4_)" fill="#EFEFEF" width="182.182" height="5.845"/>
		<path clip-path="url(#SVGID_4_)" fill="#E62F31" d="M85.943,51.309c0,1.613-1.312,2.921-2.927,2.921
			c-1.613,0-2.922-1.309-2.922-2.921c0-1.614,1.309-2.923,2.922-2.923C84.632,48.386,85.943,49.695,85.943,51.309"/>
		<path clip-path="url(#SVGID_4_)" fill="#F7E92E" d="M94.293,51.309c0,1.613-1.311,2.921-2.924,2.921s-2.924-1.309-2.924-2.921
			c0-1.614,1.311-2.923,2.924-2.923S94.293,49.695,94.293,51.309"/>
		<path clip-path="url(#SVGID_4_)" fill="#8BBF43" d="M102.645,51.309c0,1.613-1.31,2.921-2.923,2.921
			c-1.616,0-2.926-1.309-2.926-2.921c0-1.614,1.31-2.923,2.926-2.923C101.335,48.386,102.645,49.695,102.645,51.309"/>
		<rect x="294.048" y="48.385" clip-path="url(#SVGID_4_)" fill="#808081" width="13.695" height="0.743"/>
		<rect x="294.048" y="50.086" clip-path="url(#SVGID_4_)" fill="#808081" width="13.695" height="0.744"/>
		<rect x="294.048" y="51.788" clip-path="url(#SVGID_4_)" fill="#808081" width="13.695" height="0.744"/>
		<rect x="294.048" y="53.488" clip-path="url(#SVGID_4_)" fill="#808081" width="13.695" height="0.742"/>
		<rect x="310.856" y="48.385" clip-path="url(#SVGID_4_)" fill="#808081" width="7.603" height="5.845"/>
		<rect x="102.989" y="57.627" clip-path="url(#SVGID_4_)" fill="#03445E" width="194.021" height="12.575"/>
		<rect x="102.989" y="70.204" clip-path="url(#SVGID_4_)" fill="#EB584D" width="194.021" height="26.401"/>
		<rect x="102.989" y="96.603" clip-path="url(#SVGID_4_)" fill="#EFEFEF" width="194.021" height="100.016"/>
		<rect x="107.283" y="73.295" clip-path="url(#SVGID_4_)" fill="#EFEFEF" width="54.217" height="19.804"/>
		<rect x="173.93" y="86.258" clip-path="url(#SVGID_4_)" fill="#EFEFEF" width="17.729" height="6.478"/>
		<rect x="197.372" y="86.258" clip-path="url(#SVGID_4_)" fill="#EFEFEF" width="17.728" height="6.478"/>
		<rect x="220.814" y="86.258" clip-path="url(#SVGID_4_)" fill="#EFEFEF" width="17.73" height="6.478"/>
		<rect x="244.257" y="86.258" clip-path="url(#SVGID_4_)" fill="#EFEFEF" width="17.73" height="6.478"/>
		<rect x="267.701" y="86.258" clip-path="url(#SVGID_4_)" fill="#EFEFEF" width="17.726" height="6.478"/>
		<rect x="108.701" y="111.05" clip-path="url(#SVGID_4_)" fill="#F7A634" width="118.406" height="54.193"/>
		<rect x="237.084" y="111.05" clip-path="url(#SVGID_4_)" fill="#9FCFA2" width="54.216" height="54.193"/>
		<rect x="108.701" y="167.778" clip-path="url(#SVGID_4_)" fill="#4E4E4E" width="118.406" height="1.11"/>
		<rect x="108.701" y="170.708" clip-path="url(#SVGID_4_)" fill="#4E4E4E" width="118.406" height="1.107"/>
		<rect x="108.701" y="173.638" clip-path="url(#SVGID_4_)" fill="#4E4E4E" width="118.406" height="1.107"/>
		<rect x="108.701" y="176.565" clip-path="url(#SVGID_4_)" fill="#4E4E4E" width="118.406" height="1.107"/>
		<rect x="108.701" y="179.494" clip-path="url(#SVGID_4_)" fill="#4E4E4E" width="118.406" height="1.107"/>
		<rect x="108.701" y="182.421" clip-path="url(#SVGID_4_)" fill="#4E4E4E" width="118.406" height="1.109"/>
		<rect x="108.701" y="185.35" clip-path="url(#SVGID_4_)" fill="#4E4E4E" width="118.406" height="1.108"/>
		<rect x="237.084" y="167.778" clip-path="url(#SVGID_4_)" fill="#4E4E4E" width="54.216" height="1.11"/>
		<rect x="237.084" y="170.708" clip-path="url(#SVGID_4_)" fill="#4E4E4E" width="54.216" height="1.107"/>
		<rect x="237.084" y="173.638" clip-path="url(#SVGID_4_)" fill="#4E4E4E" width="54.216" height="1.107"/>
		<rect x="237.084" y="176.565" clip-path="url(#SVGID_4_)" fill="#4E4E4E" width="54.216" height="1.107"/>
		<rect x="237.084" y="179.494" clip-path="url(#SVGID_4_)" fill="#4E4E4E" width="54.216" height="1.107"/>
		<rect x="237.084" y="182.421" clip-path="url(#SVGID_4_)" fill="#4E4E4E" width="54.216" height="1.109"/>
		<rect x="237.084" y="185.35" clip-path="url(#SVGID_4_)" fill="#4E4E4E" width="54.216" height="1.108"/>
		<path clip-path="url(#SVGID_4_)" fill="#010202" d="M206.238,217.149c0,3.442-2.795,6.233-6.239,6.233
			c-3.442,0-6.235-2.791-6.235-6.233c0-3.443,2.793-6.23,6.235-6.23C203.443,210.919,206.238,213.706,206.238,217.149"/>
	</g>
</g>
<g>
	<g>
		<g>
			<path fill="#4E4E4E" d="M-114,336.228c0,10.587-7.726,20.772-18.307,20.772H-329.66c-10.581,0-20.34-10.186-20.34-20.772V63.028
				C-350,52.442-340.241,43-329.66,43h197.354C-121.726,43-114,52.442-114,63.028V336.228z"/>
			<rect x="-330" y="66" fill="#F2F2F2" width="197" height="240"/>
			<path fill="#B4B4B4" d="M-215.148,330.781c0,8.75-7.085,15.831-15.836,15.831c-8.748,0-15.834-7.081-15.834-15.831
				c0-8.751,7.087-15.841,15.834-15.841C-222.233,314.94-215.148,322.03-215.148,330.781z"/>
		</g>
	</g>
	<g>
		<path fill="#03445E" d="M-230,103.777c0,3.316-1.894,5.223-5.21,5.223h-64.065c-3.318,0-5.725-1.907-5.725-5.223V91.765
			c0-3.316,2.406-5.765,5.725-5.765h64.065c3.316,0,5.21,2.448,5.21,5.765V103.777z"/>
		<path fill="#EB584D" d="M-158,179.853c0,3.316-1.82,7.147-5.137,7.147h-136.138c-3.318,0-5.725-3.831-5.725-7.147v-56.056
			c0-3.316,2.406-6.797,5.725-6.797h136.138c3.317,0,5.137,3.481,5.137,6.797V179.853z"/>
		<path fill="#F7A634" d="M-235,227.902c0,3.315-2.897,6.098-6.217,6.098h-58.059c-3.318,0-5.725-2.782-5.725-6.098v-30.031
			c0-3.316,2.406-5.872,5.725-5.872h58.059c3.319,0,6.217,2.556,6.217,5.872V227.902z"/>
		<path fill="#9FCFA2" d="M-157,228.459c0,3.061-2.48,5.541-5.541,5.541h-58.919c-3.06,0-5.541-2.48-5.541-5.541v-30.918
			c0-3.06,2.48-5.541,5.541-5.541h58.919c3.06,0,5.541,2.481,5.541,5.541V228.459z"/>
		<g>
			<path fill="#B4B4B4" d="M-158,245.42c0,1.384-0.22,2.58-1.564,2.58h-65.205c-1.344,0-2.23-1.196-2.23-2.58v-1
				c0-1.383,0.886-2.42,2.23-2.42h65.205c1.345,0,1.564,1.037,1.564,2.42V245.42z"/>
			<path fill="#B4B4B4" d="M-158,255.431c0,1.381-0.22,3.569-1.564,3.569h-65.205c-1.344,0-2.23-2.188-2.23-3.569v-1.003
				c0-1.38,0.886-2.428,2.23-2.428h65.205c1.345,0,1.564,1.048,1.564,2.428V255.431z"/>
			<path fill="#B4B4B4" d="M-158,265.44c0,1.383-0.22,2.56-1.564,2.56h-65.205c-1.344,0-2.23-1.177-2.23-2.56v-0.999
				c0-1.385,0.886-1.441,2.23-1.441h65.205c1.345,0,1.564,0.057,1.564,1.441V265.44z"/>
			<path fill="#B4B4B4" d="M-158,275.451c0,1.382-0.22,1.549-1.564,1.549h-65.205c-1.344,0-2.23-0.167-2.23-1.549v-1.002
				c0-1.38,0.886-1.449,2.23-1.449h65.205c1.345,0,1.564,0.069,1.564,1.449V275.451z"/>
			<path fill="#B4B4B4" d="M-190,285.461c0,1.382-0.253,4.539-1.596,4.539h-33.174c-1.344,0-2.23-3.157-2.23-4.539v-1
				c0-1.384,0.886-2.461,2.23-2.461h33.174c1.342,0,1.596,1.077,1.596,2.461V285.461z"/>
		</g>
		<g>
			<path fill="#B4B4B4" d="M-235,245.42c0,1.384-1.3,2.58-2.642,2.58h-65.208c-1.344,0-2.15-1.196-2.15-2.58v-1
				c0-1.383,0.807-2.42,2.15-2.42h65.208c1.342,0,2.642,1.037,2.642,2.42V245.42z"/>
			<path fill="#B4B4B4" d="M-235,255.431c0,1.381-1.3,3.569-2.642,3.569h-65.208c-1.344,0-2.15-2.188-2.15-3.569v-1.003
				c0-1.38,0.807-2.428,2.15-2.428h65.208c1.342,0,2.642,1.048,2.642,2.428V255.431z"/>
			<path fill="#B4B4B4" d="M-235,265.44c0,1.383-1.3,2.56-2.642,2.56h-65.208c-1.344,0-2.15-1.177-2.15-2.56v-0.999
				c0-1.385,0.807-1.441,2.15-1.441h65.208c1.342,0,2.642,0.057,2.642,1.441V265.44z"/>
			<path fill="#B4B4B4" d="M-235,275.451c0,1.382-1.3,1.549-2.642,1.549h-65.208c-1.344,0-2.15-0.167-2.15-1.549v-1.002
				c0-1.38,0.807-1.449,2.15-1.449h65.208c1.342,0,2.642,0.069,2.642,1.449V275.451z"/>
			<path fill="#B4B4B4" d="M-267,285.461c0,1.382-1.332,4.539-2.677,4.539h-33.173c-1.344,0-2.15-3.157-2.15-4.539v-1
				c0-1.384,0.807-2.461,2.15-2.461h33.173c1.345,0,2.677,1.077,2.677,2.461V285.461z"/>
		</g>
	</g>
</g>
<g>
	<g>
		<g>
			<path fill="#4E4E4E" d="M-50,345.134C-50,351.535-55.387,357-61.796,357h-73.454c-6.405,0-12.75-5.465-12.75-11.866V186.628
				c0-6.402,6.345-12.628,12.75-12.628h73.454C-55.387,174-50,180.226-50,186.628V345.134z"/>
			<g>
				<path fill="#4E4E4E" d="M-50,345.134C-50,351.535-55.387,357-61.796,357h-73.454c-6.405,0-12.75-5.465-12.75-11.866V186.628
					c0-6.402,6.345-12.628,12.75-12.628h73.454C-55.387,174-50,180.226-50,186.628V345.134z"/>
				<rect x="-141" y="197" fill="#F2F2F2" width="85" height="133"/>
				<circle fill="#B4B4B4" cx="-98.521" cy="343.653" r="7.022"/>
				<path fill="#B4B4B4" d="M-82,188.818c0,0.998-0.573,2.182-1.575,2.182h-34.653c-1.001,0-1.772-1.184-1.772-2.182v-0.293
					c0-0.998,0.771-1.525,1.772-1.525h34.653c1.002,0,1.575,0.527,1.575,1.525V188.818z"/>
			</g>
		</g>
	</g>
	<g>
		<path fill="#E94A2F" d="M-65,217.521c0,1.921-1.557,3.479-3.477,3.479h-59.047c-1.92,0-3.477-1.558-3.477-3.479v-7.043
			c0-1.921,1.557-3.479,3.477-3.479h59.047c1.92,0,3.477,1.558,3.477,3.479V217.521z"/>
		<path fill="#F7A634" d="M-65,261.109c0,1.939-1.466,3.891-3.398,3.891h-59.263c-1.932,0-3.339-1.951-3.339-3.891v-32.729
			c0-1.941,1.407-3.381,3.339-3.381h59.263c1.932,0,3.398,1.439,3.398,3.381V261.109z"/>
		<path fill="#9A9999" d="M-65,288.658c0,1.92-1.2,3.342-3.164,3.342h-59.856c-1.964,0-2.979-1.422-2.979-3.342v-17.391
			c0-1.92,1.015-3.268,2.979-3.268h59.856c1.964,0,3.164,1.348,3.164,3.268V288.658z"/>
		<path fill="#9A9999" d="M-65,317.312c0,1.92-1.2,3.688-3.164,3.688h-59.856c-1.965,0-2.979-1.769-2.979-3.688v-17.39
			c0-1.921,1.014-2.922,2.979-2.922h59.856c1.964,0,3.164,1.001,3.164,2.922V317.312z"/>
	</g>
</g>
</svg>
