<?xml version="1.0" encoding="utf-8"?>
<!-- Generator: Adobe Illustrator 16.0.0, SVG Export Plug-In . SVG Version: 6.00 Build 0)  -->
<!DOCTYPE svg PUBLIC "-//W3C//DTD SVG 1.1//EN" "http://www.w3.org/Graphics/SVG/1.1/DTD/svg11.dtd">
<svg version="1.1" id="Capa_1" xmlns="http://www.w3.org/2000/svg" xmlns:xlink="http://www.w3.org/1999/xlink" x="0px" y="0px"
	 width="400px" height="400px" viewBox="0 0 400 400" enable-background="new 0 0 400 400" xml:space="preserve">
<g>
	<g>
		<g>
			<path fill="#4E4E4E" d="M349,294H45V98.805C45,94.745,49.41,92,53.469,92h290.297c4.059,0,5.233,2.745,5.233,6.805V294z"/>
			<rect x="57" y="106" fill="#F2F2F2" width="282" height="172"/>
			<path fill="#4E4E4E" d="M389,302v-8.438c0-2.029-0.944-2.562-2.975-2.562H13.048C11.018,291,9,291.532,9,293.562V302h0.373
				c0,0,9.186,7,14.698,7h350.932c5.511,0,14.698-7,14.698-7H389z"/>
			<path fill="#B4B4B4" d="M232.609,298h-66.146c-5.511,0-5.511-7-5.511-7h77.167C238.12,291,238.12,298,232.609,298z"/>
		</g>
	</g>
	<g>
		<path fill="#E94A2F" d="M170,131.162c0,2.456-1.276,3.838-3.735,3.838h-47.459c-2.458,0-4.805-1.382-4.805-3.838v-8.899
			c0-2.456,2.347-4.263,4.805-4.263h47.459c2.459,0,3.735,1.807,3.735,4.263V131.162z"/>
		<path fill="#68C4D4" d="M283,187.885c0,2.273-1.783,4.115-3.982,4.115H117.982c-2.199,0-3.982-1.842-3.982-4.115v-41.77
			c0-2.273,1.783-4.115,3.982-4.115h161.035c2.199,0,3.982,1.842,3.982,4.115V187.885z"/>
		<path fill="#9A9999" d="M166,223.117c0,2.456-1.726,4.883-4.185,4.883h-43.01c-2.458,0-4.805-2.427-4.805-4.883v-22.247
			c0-2.457,2.347-3.871,4.805-3.871h43.01c2.459,0,4.185,1.414,4.185,3.871V223.117z"/>
		<path fill="#9A9999" d="M223,223.55c0,2.458-1.992,4.45-4.45,4.45h-42.1c-2.458,0-4.45-1.992-4.45-4.45v-22.1
			c0-2.458,1.992-4.45,4.45-4.45h42.1c2.458,0,4.45,1.992,4.45,4.45V223.55z"/>
		<path fill="#9A9999" d="M283,222.981c0,2.488-2.649,5.019-5.232,5.019h-42.204c-2.583,0-5.563-2.53-5.563-5.019v-21.798
			c0-2.488,2.98-4.184,5.563-4.184h42.204c2.583,0,5.232,1.695,5.232,4.184V222.981z"/>
		<g>
			<path fill="#B4B4B4" d="M224,236.095c0,1.024-0.698,1.905-1.693,1.905H174c-0.995,0-2-0.881-2-1.905v-0.741
				c0-1.024,1.004-2.354,2-2.354h48.307c0.995,0,1.693,1.329,1.693,2.354V236.095z"/>
			<path fill="#B4B4B4" d="M224,243.511c0,1.023-0.698,1.489-1.693,1.489H174c-0.995,0-2-0.466-2-1.489v-0.742
				c0-1.022,1.004-1.769,2-1.769h48.307c0.995,0,1.693,0.746,1.693,1.769V243.511z"/>
			<path fill="#B4B4B4" d="M224,250.927c0,1.023-0.698,3.073-1.693,3.073H174c-0.995,0-2-2.05-2-3.073v-0.743
				c0-1.023,1.004-2.184,2-2.184h48.307c0.995,0,1.693,1.16,1.693,2.184V250.927z"/>
			<path fill="#B4B4B4" d="M224,258.342c0,1.025-0.698,2.658-1.693,2.658H174c-0.995,0-2-1.633-2-2.658v-0.74
				c0-1.025,1.004-1.602,2-1.602h48.307c0.995,0,1.693,0.576,1.693,1.602V258.342z"/>
			<path fill="#B4B4B4" d="M199,265.757c0,1.025,0.571,2.243-0.424,2.243H174c-0.995,0-2-1.218-2-2.243v-0.741
				c0-1.023,1.004-2.016,2-2.016h24.576c0.996,0,0.424,0.992,0.424,2.016V265.757z"/>
		</g>
		<g>
			<path fill="#B4B4B4" d="M283,236.095c0,1.024-0.373,1.905-1.368,1.905h-48.306c-0.996,0-3.326-0.881-3.326-1.905v-0.741
				c0-1.024,2.33-2.354,3.326-2.354h48.306c0.995,0,1.368,1.329,1.368,2.354V236.095z"/>
			<path fill="#B4B4B4" d="M283,243.511c0,1.023-0.373,1.489-1.368,1.489h-48.306c-0.996,0-3.326-0.466-3.326-1.489v-0.742
				c0-1.022,2.33-1.769,3.326-1.769h48.306c0.995,0,1.368,0.746,1.368,1.769V243.511z"/>
			<path fill="#B4B4B4" d="M283,250.927c0,1.023-0.373,3.073-1.368,3.073h-48.306c-0.996,0-3.326-2.05-3.326-3.073v-0.743
				c0-1.023,2.33-2.184,3.326-2.184h48.306c0.995,0,1.368,1.16,1.368,2.184V250.927z"/>
			<path fill="#B4B4B4" d="M283,258.342c0,1.025-0.373,2.658-1.368,2.658h-48.306c-0.996,0-3.326-1.633-3.326-2.658v-0.74
				c0-1.025,2.33-1.602,3.326-1.602h48.306c0.995,0,1.368,0.576,1.368,1.602V258.342z"/>
			<path fill="#B4B4B4" d="M260,265.757c0,1.025-1.103,2.243-2.098,2.243h-24.576c-0.996,0-3.326-1.218-3.326-2.243v-0.741
				c0-1.023,2.33-2.016,3.326-2.016h24.576c0.995,0,2.098,0.992,2.098,2.016V265.757z"/>
		</g>
		<g>
			<path fill="#B4B4B4" d="M166,236.095c0,1.024-0.542,1.905-1.537,1.905h-48.307c-0.994,0-2.157-0.881-2.157-1.905v-0.741
				c0-1.024,1.163-2.354,2.157-2.354h48.307c0.995,0,1.537,1.329,1.537,2.354V236.095z"/>
			<path fill="#B4B4B4" d="M166,243.511c0,1.023-0.542,1.489-1.537,1.489h-48.307c-0.994,0-2.157-0.466-2.157-1.489v-0.742
				c0-1.022,1.163-1.769,2.157-1.769h48.307c0.995,0,1.537,0.746,1.537,1.769V243.511z"/>
			<path fill="#B4B4B4" d="M166,250.927c0,1.023-0.542,3.073-1.537,3.073h-48.307c-0.994,0-2.157-2.05-2.157-3.073v-0.743
				c0-1.023,1.163-2.184,2.157-2.184h48.307c0.995,0,1.537,1.16,1.537,2.184V250.927z"/>
			<path fill="#B4B4B4" d="M166,258.342c0,1.025-0.542,2.658-1.537,2.658h-48.307c-0.994,0-2.157-1.633-2.157-2.658v-0.74
				c0-1.025,1.163-1.602,2.157-1.602h48.307c0.995,0,1.537,0.576,1.537,1.602V258.342z"/>
			<path fill="#B4B4B4" d="M142,265.757c0,1.025-0.272,2.243-1.267,2.243h-24.576c-0.994,0-2.157-1.218-2.157-2.243v-0.741
				c0-1.023,1.163-2.016,2.157-2.016h24.576c0.995,0,1.267,0.992,1.267,2.016V265.757z"/>
		</g>
	</g>
	<g>
		<rect x="57.527" y="104.794" fill="#CAC9C9" width="277.162" height="14.308"/>
		<rect x="92.984" y="108.638" fill="#EFEFEF" width="206.25" height="6.617"/>
		<path fill="#E62F31" d="M66.984,111.947c0,1.827-1.484,3.308-3.312,3.308c-1.828,0-3.31-1.481-3.31-3.308s1.481-3.308,3.31-3.308
			C65.5,108.639,66.984,110.121,66.984,111.947"/>
		<path fill="#F7E92E" d="M76.437,111.947c0,1.827-1.484,3.308-3.31,3.308c-1.827,0-3.312-1.481-3.312-3.308
			s1.484-3.308,3.312-3.308C74.953,108.639,76.437,110.121,76.437,111.947"/>
		<path fill="#8BBF43" d="M85.891,111.947c0,1.827-1.482,3.308-3.308,3.308c-1.829,0-3.312-1.481-3.312-3.308
			s1.483-3.308,3.312-3.308C84.409,108.639,85.891,110.121,85.891,111.947"/>
		<rect x="302.58" y="108.638" fill="#808081" width="15.505" height="0.842"/>
		<rect x="302.58" y="110.563" fill="#808081" width="15.505" height="0.841"/>
		<rect x="302.58" y="112.49" fill="#808081" width="15.505" height="0.841"/>
		<rect x="302.58" y="114.416" fill="#808081" width="15.505" height="0.839"/>
		<rect x="321.609" y="108.638" fill="#808081" width="8.606" height="6.617"/>
		<rect x="86.282" y="119.102" fill="#03445E" width="219.653" height="14.235"/>
		<rect x="86.282" y="133.338" fill="#EB584D" width="219.653" height="29.889"/>
		<rect x="86.282" y="163.226" fill="#EFEFEF" width="219.653" height="113.226"/>
		<rect x="91.143" y="136.839" fill="#EFEFEF" width="61.379" height="22.419"/>
		<rect x="166.595" y="151.514" fill="#EFEFEF" width="20.071" height="7.333"/>
		<rect x="193.134" y="151.514" fill="#EFEFEF" width="20.069" height="7.333"/>
		<rect x="219.673" y="151.514" fill="#EFEFEF" width="20.072" height="7.333"/>
		<rect x="246.211" y="151.514" fill="#EFEFEF" width="20.073" height="7.333"/>
		<rect x="272.753" y="151.514" fill="#EFEFEF" width="20.068" height="7.333"/>
		<rect x="92.748" y="179.581" fill="#F7A634" width="134.05" height="61.353"/>
		<rect x="238.091" y="179.581" fill="#9FCFA2" width="61.378" height="61.353"/>
		<rect x="92.748" y="243.803" fill="#4E4E4E" width="134.05" height="1.255"/>
		<rect x="92.748" y="247.12" fill="#4E4E4E" width="134.05" height="1.253"/>
		<rect x="92.748" y="250.438" fill="#4E4E4E" width="134.05" height="1.253"/>
		<rect x="92.748" y="253.751" fill="#4E4E4E" width="134.05" height="1.254"/>
		<rect x="92.748" y="257.066" fill="#4E4E4E" width="134.05" height="1.254"/>
		<rect x="92.748" y="260.381" fill="#4E4E4E" width="134.05" height="1.256"/>
		<rect x="92.748" y="263.697" fill="#4E4E4E" width="134.05" height="1.254"/>
		<rect x="238.091" y="243.803" fill="#4E4E4E" width="61.378" height="1.255"/>
		<rect x="238.091" y="247.12" fill="#4E4E4E" width="61.378" height="1.253"/>
		<rect x="238.091" y="250.438" fill="#4E4E4E" width="61.378" height="1.253"/>
		<rect x="238.091" y="253.751" fill="#4E4E4E" width="61.378" height="1.254"/>
		<rect x="238.091" y="257.066" fill="#4E4E4E" width="61.378" height="1.254"/>
		<rect x="238.091" y="260.381" fill="#4E4E4E" width="61.378" height="1.256"/>
		<rect x="238.091" y="263.697" fill="#4E4E4E" width="61.378" height="1.254"/>
	</g>
</g>
<g>
	<defs>
		<rect id="SVGID_1_" x="504.421" y="33.618" width="267.579" height="332.764"/>
	</defs>
	<clipPath id="SVGID_2_">
		<use xlink:href="#SVGID_1_"  overflow="visible"/>
	</clipPath>
	<g clip-path="url(#SVGID_2_)">
		<defs>
			<rect id="SVGID_3_" x="504.421" y="33.618" width="267.515" height="332.662"/>
		</defs>
		<clipPath id="SVGID_4_">
			<use xlink:href="#SVGID_3_"  overflow="visible"/>
		</clipPath>
		<path clip-path="url(#SVGID_4_)" fill="#B0AFAF" d="M725.912,365.714c0,0.369-0.295,0.667-0.666,0.664l-183.627,0.005
			c-0.368,0-0.667-0.298-0.667-0.666v-85.246c0-0.366,0.299-0.664,0.666-0.664l183.628-0.003c0.369,0,0.665,0.299,0.665,0.667
			L725.912,365.714z"/>
		<path clip-path="url(#SVGID_4_)" fill="#C9C9C9" d="M554.922,299.336c0,0.367-0.297,0.666-0.666,0.666h-10.002
			c-0.367,0-0.666-0.299-0.666-0.666v-5.45c0-0.368,0.299-0.667,0.666-0.667h10.002c0.369,0,0.666,0.299,0.666,0.667V299.336z"/>
		<path clip-path="url(#SVGID_4_)" fill="#C9C9C9" d="M567.88,299.336c0,0.367-0.297,0.666-0.666,0.666h-10.002
			c-0.366,0-0.664-0.299-0.664-0.666v-5.45c0-0.368,0.298-0.667,0.664-0.667h10.002c0.369,0,0.666,0.299,0.666,0.667V299.336z"/>
		<path clip-path="url(#SVGID_4_)" fill="#C9C9C9" d="M580.838,299.336c0,0.367-0.296,0.666-0.665,0.666H570.17
			c-0.368,0-0.665-0.299-0.665-0.666v-5.45c0-0.368,0.297-0.667,0.665-0.667h10.003c0.369,0,0.665,0.299,0.665,0.667V299.336z"/>
		<path clip-path="url(#SVGID_4_)" fill="#C9C9C9" d="M593.797,299.336c0,0.367-0.297,0.666-0.667,0.666h-10.002
			c-0.366,0-0.666-0.299-0.666-0.666v-5.45c0-0.368,0.3-0.667,0.666-0.667h10.002c0.37,0,0.667,0.299,0.667,0.667V299.336z"/>
		<path clip-path="url(#SVGID_4_)" fill="#C9C9C9" d="M606.755,299.335c0,0.368-0.298,0.665-0.665,0.665h-10.004
			c-0.366,0-0.665-0.297-0.665-0.664v-5.45c0-0.368,0.298-0.667,0.665-0.667h10.002c0.369,0,0.667,0.299,0.667,0.667V299.335z"/>
		<path clip-path="url(#SVGID_4_)" fill="#C9C9C9" d="M619.714,299.334c0,0.369-0.3,0.666-0.667,0.666h-10.003
			c-0.368,0-0.666-0.297-0.666-0.665v-5.449c0-0.368,0.298-0.667,0.666-0.667h10.003c0.367,0,0.667,0.299,0.667,0.667V299.334z"/>
		<path clip-path="url(#SVGID_4_)" fill="#C9C9C9" d="M632.67,299.334c0.001,0.368-0.298,0.666-0.665,0.666h-10.003
			c-0.367,0-0.666-0.297-0.666-0.666v-5.448c0-0.37,0.299-0.667,0.665-0.667h10.004c0.367,0,0.665,0.297,0.665,0.667V299.334z"/>
		<path clip-path="url(#SVGID_4_)" fill="#C9C9C9" d="M645.629,299.334c0,0.366-0.298,0.666-0.666,0.666h-10.001
			c-0.37,0-0.666-0.298-0.666-0.666v-5.448c0-0.37,0.296-0.667,0.666-0.667h10.001c0.368,0,0.666,0.297,0.666,0.667V299.334z"/>
		<path clip-path="url(#SVGID_4_)" fill="#C9C9C9" d="M658.586,299.334c0,0.366-0.298,0.666-0.667,0.666h-10.001
			c-0.368,0-0.666-0.298-0.666-0.666v-5.448c0-0.37,0.298-0.667,0.666-0.667h10.001c0.369,0,0.667,0.297,0.667,0.667V299.334z"/>
		<path clip-path="url(#SVGID_4_)" fill="#C9C9C9" d="M671.545,299.334c0,0.366-0.299,0.666-0.666,0.666h-10.001
			c-0.371,0-0.668-0.3-0.668-0.666v-5.449c0-0.369,0.297-0.666,0.667-0.666h10.001c0.368,0,0.667,0.297,0.667,0.666V299.334z"/>
		<path clip-path="url(#SVGID_4_)" fill="#C9C9C9" d="M684.502,299.334c0,0.366-0.297,0.666-0.664,0.666h-10.005
			c-0.366,0-0.663-0.3-0.663-0.666v-5.449c0-0.369,0.297-0.666,0.663-0.666h10.003c0.369,0,0.666,0.297,0.666,0.666V299.334z"/>
		<path clip-path="url(#SVGID_4_)" fill="#C9C9C9" d="M697.46,299.334c0,0.366-0.298,0.666-0.667,0.666h-10.001
			c-0.368,0-0.666-0.3-0.666-0.666v-5.449c0-0.369,0.298-0.666,0.666-0.666h10.001c0.369,0,0.667,0.297,0.667,0.666V299.334z"/>
		<path clip-path="url(#SVGID_4_)" fill="#C9C9C9" d="M710.419,299.334c0,0.366-0.299,0.666-0.666,0.666h-10.002
			c-0.368,0-0.666-0.3-0.666-0.666v-5.449c0-0.369,0.298-0.666,0.666-0.666h10.002c0.367,0,0.666,0.297,0.666,0.664V299.334z"/>
		<path clip-path="url(#SVGID_4_)" fill="#C9C9C9" d="M723.377,299.334c0,0.366-0.298,0.666-0.666,0.666h-10.002
			c-0.367,0-0.667-0.3-0.667-0.666v-5.451c0-0.367,0.3-0.664,0.667-0.664h10.002c0.368,0,0.666,0.297,0.666,0.664V299.334z"/>
		<path clip-path="url(#SVGID_4_)" fill="#C9C9C9" d="M554.922,312.094c0,0.369-0.297,0.664-0.666,0.664h-10.002
			c-0.367,0-0.666-0.295-0.666-0.664v-10c0-0.364,0.299-0.664,0.666-0.664h10.002c0.369,0,0.666,0.298,0.666,0.664V312.094z"/>
		<path clip-path="url(#SVGID_4_)" fill="#C9C9C9" d="M567.389,312.094c0,0.369-0.297,0.664-0.666,0.664h-10.002
			c-0.367,0-0.666-0.295-0.666-0.664v-10c0-0.366,0.299-0.664,0.666-0.664h10.002c0.369,0,0.666,0.298,0.666,0.664V312.094z"/>
		<path clip-path="url(#SVGID_4_)" fill="#C9C9C9" d="M579.854,312.093c0,0.37-0.298,0.665-0.665,0.665h-10.003
			c-0.365,0-0.664-0.295-0.664-0.665v-9.998c0-0.366,0.299-0.665,0.664-0.665h10.003c0.367,0,0.665,0.299,0.665,0.665V312.093z"/>
		<path clip-path="url(#SVGID_4_)" fill="#C9C9C9" d="M592.321,312.093c0,0.367-0.298,0.665-0.665,0.665h-10.004
			c-0.365,0-0.664-0.295-0.664-0.665v-9.998c0-0.366,0.299-0.665,0.664-0.665h10.004c0.367,0,0.665,0.299,0.665,0.665V312.093z"/>
		<path clip-path="url(#SVGID_4_)" fill="#C9C9C9" d="M604.788,312.093c0,0.367-0.298,0.665-0.666,0.665h-10.001
			c-0.369,0-0.667-0.298-0.667-0.665v-9.998c0-0.366,0.297-0.665,0.667-0.665h10.001c0.368,0,0.666,0.297,0.666,0.665V312.093z"/>
		<path clip-path="url(#SVGID_4_)" fill="#C9C9C9" d="M617.254,312.093c0,0.367-0.297,0.665-0.666,0.665h-10
			c-0.369,0-0.667-0.298-0.667-0.665v-9.998c0-0.368,0.298-0.665,0.667-0.665h10c0.369,0,0.666,0.297,0.666,0.665V312.093z"/>
		<path clip-path="url(#SVGID_4_)" fill="#C9C9C9" d="M629.721,312.093c0.001,0.367-0.298,0.665-0.665,0.665h-10.004
			c-0.366,0-0.663-0.298-0.663-0.665v-9.998c0-0.368,0.297-0.665,0.663-0.665h10.004c0.367,0,0.665,0.297,0.665,0.665V312.093z"/>
		<path clip-path="url(#SVGID_4_)" fill="#C9C9C9" d="M642.188,312.093c0,0.367-0.299,0.665-0.667,0.665H631.52
			c-0.368,0-0.665-0.298-0.665-0.665v-9.998c0-0.368,0.297-0.665,0.665-0.665h10.002c0.368,0,0.667,0.297,0.667,0.665V312.093z"/>
		<path clip-path="url(#SVGID_4_)" fill="#C9C9C9" d="M654.654,312.09c0,0.37-0.298,0.667-0.667,0.668h-10.002
			c-0.368,0-0.665-0.298-0.665-0.665v-9.998c0-0.368,0.297-0.665,0.665-0.665l10.002-0.002c0.369,0.002,0.667,0.299,0.667,0.667
			V312.09z"/>
		<path clip-path="url(#SVGID_4_)" fill="#C9C9C9" d="M667.12,312.09c0,0.37-0.298,0.667-0.665,0.667l-10.004,0.001
			c-0.366,0-0.666-0.298-0.666-0.665v-9.998c0-0.368,0.3-0.667,0.666-0.667h10.004c0.367,0,0.665,0.299,0.665,0.665V312.09z"/>
		<path clip-path="url(#SVGID_4_)" fill="#C9C9C9" d="M679.586,312.09c0,0.37-0.298,0.667-0.664,0.667h-10.003
			c-0.369,0-0.665-0.297-0.665-0.667v-9.997c0-0.366,0.296-0.665,0.665-0.665h10.001c0.368,0,0.666,0.299,0.666,0.665V312.09z"/>
		<path clip-path="url(#SVGID_4_)" fill="#C9C9C9" d="M576.723,336.312c0,0.37-0.299,0.667-0.664,0.667h-10.004
			c-0.367,0-0.666-0.297-0.666-0.667v-9.996c0-0.365,0.299-0.667,0.666-0.667h10.004c0.365,0,0.664,0.299,0.664,0.667V336.312z"/>
		<path clip-path="url(#SVGID_4_)" fill="#C9C9C9" d="M589.19,336.312c0,0.369-0.298,0.667-0.666,0.667h-10.003
			c-0.367,0-0.665-0.297-0.665-0.667v-9.996c0-0.368,0.298-0.667,0.665-0.667h10.003c0.368,0,0.666,0.299,0.666,0.667V336.312z"/>
		<path clip-path="url(#SVGID_4_)" fill="#C9C9C9" d="M601.656,336.312c0,0.369-0.298,0.667-0.665,0.667h-10.003
			c-0.368,0-0.666-0.298-0.666-0.667v-9.996c0-0.368,0.298-0.667,0.666-0.667h10.003c0.367,0,0.665,0.299,0.664,0.667
			L601.656,336.312z"/>
		<path clip-path="url(#SVGID_4_)" fill="#C9C9C9" d="M614.122,336.312c0,0.369-0.298,0.667-0.665,0.667h-10.002
			c-0.367,0-0.667-0.298-0.667-0.667v-9.996c0-0.368,0.3-0.667,0.667-0.667h10.002c0.367,0,0.665,0.299,0.665,0.665V336.312z"/>
		<path clip-path="url(#SVGID_4_)" fill="#C9C9C9" d="M626.59,336.312c0,0.369-0.298,0.667-0.667,0.667h-10.001
			c-0.369,0-0.668-0.298-0.668-0.667v-9.998c0-0.366,0.298-0.665,0.668-0.665h10.001c0.369,0,0.667,0.299,0.667,0.665V336.312z"/>
		<path clip-path="url(#SVGID_4_)" fill="#C9C9C9" d="M639.056,336.312c0,0.369-0.299,0.665-0.666,0.665l-10.001,0.002
			c-0.369-0.002-0.668-0.298-0.668-0.667v-9.998c0-0.366,0.299-0.665,0.668-0.665h10.001c0.367,0,0.666,0.299,0.666,0.665V336.312z"
			/>
		<path clip-path="url(#SVGID_4_)" fill="#C9C9C9" d="M651.521,336.312c0,0.369-0.297,0.665-0.666,0.665h-10.001
			c-0.369,0-0.667-0.296-0.667-0.665v-9.998c0-0.366,0.298-0.665,0.667-0.665h10.001c0.369,0,0.666,0.299,0.666,0.665V336.312z"/>
		<path clip-path="url(#SVGID_4_)" fill="#C9C9C9" d="M663.987,336.312c0,0.369-0.298,0.665-0.665,0.665H653.32
			c-0.369,0-0.666-0.296-0.666-0.665l-0.001-9.998c0.001-0.366,0.298-0.665,0.667-0.665h10.002c0.367,0,0.665,0.299,0.665,0.665
			V336.312z"/>
		<path clip-path="url(#SVGID_4_)" fill="#C9C9C9" d="M676.455,336.312c0,0.369-0.299,0.665-0.667,0.665h-10.002
			c-0.367,0-0.666-0.296-0.666-0.665v-9.998c0-0.366,0.298-0.665,0.666-0.665h10.002c0.368,0,0.667,0.299,0.667,0.665V336.312z"/>
		<path clip-path="url(#SVGID_4_)" fill="#C9C9C9" d="M688.922,336.312c0,0.369-0.299,0.665-0.666,0.665h-10.004
			c-0.367,0-0.665-0.296-0.665-0.665v-9.998c0-0.366,0.298-0.665,0.665-0.665h10.004c0.367,0,0.666,0.299,0.666,0.665V336.312z"/>
		<path clip-path="url(#SVGID_4_)" fill="#C9C9C9" d="M582.958,348.322c0,0.369-0.3,0.666-0.667,0.666h-10.002
			c-0.369,0-0.666-0.297-0.666-0.666v-9.999c0-0.365,0.297-0.664,0.666-0.664h10.002c0.367,0,0.667,0.299,0.667,0.664V348.322z"/>
		<path clip-path="url(#SVGID_4_)" fill="#C9C9C9" d="M595.422,348.322c0,0.369-0.297,0.666-0.664,0.666h-10.004
			c-0.366,0-0.663-0.297-0.663-0.666v-9.999c0-0.365,0.297-0.664,0.663-0.664h10.004c0.367,0,0.664,0.297,0.664,0.664V348.322z"/>
		<path clip-path="url(#SVGID_4_)" fill="#C9C9C9" d="M607.89,348.322c0,0.369-0.297,0.666-0.667,0.666h-10
			c-0.37,0-0.667-0.297-0.667-0.666v-9.999c0-0.367,0.297-0.664,0.667-0.664h10c0.37,0,0.667,0.297,0.667,0.664V348.322z"/>
		<path clip-path="url(#SVGID_4_)" fill="#C9C9C9" d="M620.356,348.322c0,0.369-0.298,0.666-0.665,0.666h-10.004
			c-0.368,0-0.664-0.297-0.664-0.666v-9.999c0-0.367,0.296-0.664,0.664-0.664h10.004c0.367-0.001,0.665,0.297,0.665,0.664V348.322z"
			/>
		<path clip-path="url(#SVGID_4_)" fill="#C9C9C9" d="M632.823,348.322c0,0.369-0.299,0.666-0.665,0.666h-10.005
			c-0.366,0-0.664-0.297-0.664-0.666v-9.999c0-0.367,0.298-0.665,0.664-0.665h10.005c0.366,0,0.665,0.298,0.665,0.665V348.322z"/>
		<path clip-path="url(#SVGID_4_)" fill="#C9C9C9" d="M645.289,348.322c0,0.369-0.298,0.666-0.667,0.666h-10.001
			c-0.366,0-0.666-0.297-0.666-0.666v-9.999c0-0.367,0.3-0.665,0.666-0.665h10.001c0.369,0,0.667,0.298,0.667,0.665V348.322z"/>
		<path clip-path="url(#SVGID_4_)" fill="#C9C9C9" d="M657.756,348.322c0,0.369-0.298,0.666-0.666,0.666h-10.002
			c-0.369,0-0.667-0.297-0.667-0.666v-9.999c0-0.367,0.298-0.665,0.667-0.665h10.002c0.368,0,0.666,0.298,0.666,0.665V348.322z"/>
		<path clip-path="url(#SVGID_4_)" fill="#C9C9C9" d="M670.222,348.322c0,0.365-0.298,0.666-0.666,0.666h-10.001
			c-0.37,0-0.668-0.297-0.668-0.666v-9.999c0-0.367,0.298-0.665,0.668-0.665h10.001c0.368,0,0.666,0.298,0.666,0.665V348.322z"/>
		<path clip-path="url(#SVGID_4_)" fill="#C9C9C9" d="M682.688,348.322c0,0.365-0.298,0.666-0.667,0.666H672.02
			c-0.366,0-0.666-0.297-0.666-0.666v-9.999c0-0.367,0.3-0.665,0.666-0.665h10.002c0.369,0,0.667,0.298,0.667,0.665V348.322z"/>
		<path clip-path="url(#SVGID_4_)" fill="#C9C9C9" d="M695.154,348.322c0,0.365-0.297,0.666-0.667,0.666h-10
			c-0.369,0-0.667-0.301-0.667-0.666v-9.999c0-0.367,0.297-0.665,0.667-0.665h10c0.37,0,0.667,0.298,0.667,0.665V348.322z"/>
		<path clip-path="url(#SVGID_4_)" fill="#C9C9C9" d="M701.388,336.312c0,0.369-0.297,0.665-0.668,0.665h-10.001
			c-0.365,0-0.665-0.296-0.665-0.665v-9.998c0-0.366,0.3-0.665,0.665-0.665h10.001c0.369,0,0.668,0.299,0.668,0.665V336.312z"/>
		<path clip-path="url(#SVGID_4_)" fill="#C9C9C9" d="M692.054,312.09c0,0.37-0.299,0.667-0.667,0.667h-9.999
			c-0.372,0-0.669-0.297-0.669-0.667v-9.997c0-0.366,0.297-0.665,0.666-0.665h10.002c0.368,0,0.667,0.299,0.667,0.665V312.09z"/>
		<path clip-path="url(#SVGID_4_)" fill="#C9C9C9" d="M704.52,312.09c0,0.37-0.299,0.667-0.666,0.667h-10.002
			c-0.368,0-0.666-0.297-0.666-0.667v-9.997c0-0.366,0.298-0.665,0.666-0.665h10.002c0.367,0,0.666,0.299,0.666,0.665V312.09z"/>
		<path clip-path="url(#SVGID_4_)" fill="#C9C9C9" d="M573.547,324.227c0,0.369-0.298,0.667-0.665,0.667h-10.003
			c-0.368,0-0.665-0.298-0.665-0.667v-9.999c0-0.364,0.297-0.664,0.665-0.664h10.003c0.367,0,0.665,0.3,0.665,0.664V324.227z"/>
		<path clip-path="url(#SVGID_4_)" fill="#C9C9C9" d="M586.015,324.227c0,0.369-0.299,0.667-0.667,0.667h-10.002
			c-0.367,0-0.666-0.298-0.666-0.667l-0.001-9.999c0.001-0.364,0.3-0.664,0.667-0.664h10.002c0.368,0,0.667,0.298,0.667,0.664
			V324.227z"/>
		<path clip-path="url(#SVGID_4_)" fill="#C9C9C9" d="M598.48,324.227c0,0.369-0.298,0.667-0.666,0.667h-10.002
			c-0.369,0-0.666-0.298-0.666-0.667v-9.999c0-0.366,0.297-0.664,0.666-0.664h10.002c0.368,0,0.666,0.298,0.666,0.664V324.227z"/>
		<path clip-path="url(#SVGID_4_)" fill="#C9C9C9" d="M610.947,324.227c0,0.368-0.299,0.667-0.666,0.667h-10.003
			c-0.367,0-0.664-0.298-0.664-0.667v-9.999c0-0.366,0.297-0.664,0.664-0.664h10.003c0.367,0,0.666,0.298,0.666,0.664V324.227z"/>
		<path clip-path="url(#SVGID_4_)" fill="#C9C9C9" d="M623.413,324.227c0,0.368-0.299,0.667-0.666,0.667h-10.002
			c-0.367,0-0.665-0.298-0.665-0.667v-9.999c0-0.366,0.298-0.664,0.665-0.664h10.002c0.367,0,0.666,0.298,0.666,0.664V324.227z"/>
		<path clip-path="url(#SVGID_4_)" fill="#C9C9C9" d="M635.88,324.227c0,0.368-0.298,0.667-0.667,0.667h-10.002
			c-0.367,0-0.667-0.299-0.667-0.667v-9.999c0-0.366,0.3-0.664,0.667-0.664h10.002c0.369,0,0.667,0.298,0.667,0.664V324.227z"/>
		<path clip-path="url(#SVGID_4_)" fill="#C9C9C9" d="M648.347,324.227c0,0.368-0.299,0.667-0.667,0.667h-10.002
			c-0.368,0-0.665-0.299-0.665-0.667v-9.999c0-0.366,0.297-0.664,0.665-0.664h10.002c0.368,0,0.667,0.298,0.667,0.664V324.227z"/>
		<path clip-path="url(#SVGID_4_)" fill="#C9C9C9" d="M660.812,324.227c0,0.368-0.298,0.667-0.666,0.667h-10.002
			c-0.369,0-0.666-0.299-0.666-0.667v-9.999c0-0.366,0.297-0.664,0.666-0.664h10.002c0.368,0,0.666,0.298,0.666,0.664V324.227z"/>
		<path clip-path="url(#SVGID_4_)" fill="#C9C9C9" d="M673.279,324.227c0,0.368-0.299,0.667-0.667,0.667h-10.001
			c-0.369,0-0.667-0.299-0.667-0.667v-9.999c0-0.366,0.298-0.664,0.667-0.664h10.001c0.368,0,0.667,0.298,0.667,0.664V324.227z"/>
		<path clip-path="url(#SVGID_4_)" fill="#C9C9C9" d="M685.745,324.225c0,0.37-0.299,0.667-0.666,0.667l-10,0.002
			c-0.371,0-0.668-0.299-0.668-0.669v-9.996c0-0.367,0.297-0.665,0.668-0.666h10c0.367,0,0.666,0.299,0.666,0.665V324.225z"/>
		<path clip-path="url(#SVGID_4_)" fill="#C9C9C9" d="M698.211,324.225c0,0.37-0.297,0.667-0.663,0.667l-10.003,0.002
			c-0.369-0.002-0.666-0.299-0.666-0.669l-0.001-9.997c0.001-0.366,0.298-0.665,0.665-0.665h10.002c0.369,0,0.666,0.299,0.666,0.665
			V324.225z"/>
		<path clip-path="url(#SVGID_4_)" fill="#C9C9C9" d="M710.678,324.225c0,0.37-0.298,0.667-0.666,0.667h-10.003
			c-0.365,0-0.665-0.297-0.665-0.667l-0.001-9.997c0.001-0.366,0.299-0.665,0.666-0.665h10.003c0.368,0,0.666,0.299,0.666,0.665
			V324.225z"/>
		<path clip-path="url(#SVGID_4_)" fill="#C9C9C9" d="M723.145,324.225c0,0.37-0.298,0.667-0.667,0.667h-10.001
			c-0.369,0-0.665-0.297-0.665-0.667v-9.997c0-0.366,0.296-0.665,0.665-0.665h10.001c0.369,0,0.667,0.299,0.667,0.665V324.225z"/>
		<path clip-path="url(#SVGID_4_)" fill="#C9C9C9" d="M560.908,323.828c0,0.368-0.298,0.666-0.666,0.666h-15.988
			c-0.367,0-0.666-0.297-0.666-0.666v-9.199c0-0.367,0.299-0.665,0.666-0.665h15.988c0.368,0,0.666,0.298,0.666,0.665V323.828z"/>
		<path clip-path="url(#SVGID_4_)" fill="#C9C9C9" d="M563.862,335.876c-0.001,0.366-0.297,0.666-0.666,0.666h-18.942
			c-0.367,0-0.666-0.3-0.666-0.666v-9.121c0-0.366,0.299-0.666,0.666-0.666h18.942c0.369,0,0.665,0.3,0.666,0.666V335.876z"/>
		<path clip-path="url(#SVGID_4_)" fill="#C9C9C9" d="M570.247,347.922c0,0.368-0.298,0.664-0.666,0.664h-25.326
			c-0.368,0-0.666-0.296-0.666-0.664v-9.195c0-0.368,0.298-0.665,0.665-0.665l25.327-0.001c0.368,0.001,0.666,0.298,0.666,0.666
			V347.922z"/>
		<path clip-path="url(#SVGID_4_)" fill="#C9C9C9" d="M723.254,311.694c0,0.366-0.299,0.665-0.666,0.665h-15.987
			c-0.367,0-0.665-0.299-0.665-0.665l-0.002-9.202c0-0.365,0.3-0.666,0.667-0.664l15.987-0.002c0.367,0,0.666,0.301,0.666,0.666
			V311.694z"/>
		<path clip-path="url(#SVGID_4_)" fill="#C9C9C9" d="M723.255,335.873c0,0.367-0.3,0.666-0.665,0.666h-18.941
			c-0.369,0-0.668-0.299-0.668-0.666v-9.121c0-0.366,0.298-0.663,0.668-0.663l18.939-0.002c0.367,0,0.666,0.299,0.666,0.665
			L723.255,335.873z"/>
		<path clip-path="url(#SVGID_4_)" fill="#C9C9C9" d="M723.255,347.92c0,0.368-0.3,0.666-0.665,0.666h-25.327
			c-0.368,0-0.667-0.298-0.667-0.664v-9.198c0-0.366,0.299-0.665,0.667-0.665h25.327c0.365,0,0.665,0.299,0.665,0.665V347.92z"/>
		<path clip-path="url(#SVGID_4_)" fill="#C9C9C9" d="M554.604,361.725c0,0.369-0.297,0.665-0.665,0.665h-9.684
			c-0.368,0-0.666-0.296-0.666-0.665v-10.796c0-0.368,0.298-0.665,0.666-0.665h9.684c0.368,0,0.665,0.297,0.665,0.665V361.725z"/>
		<path clip-path="url(#SVGID_4_)" fill="#C9C9C9" d="M567.056,361.725c0,0.369-0.298,0.665-0.665,0.665h-9.685
			c-0.366,0-0.665-0.296-0.665-0.665l-0.001-10.796c0-0.368,0.3-0.665,0.666-0.665h9.685c0.367,0,0.665,0.297,0.665,0.665V361.725z"
			/>
		<path clip-path="url(#SVGID_4_)" fill="#C9C9C9" d="M579.507,361.725c0,0.369-0.299,0.665-0.666,0.665h-9.683
			c-0.368,0-0.666-0.296-0.666-0.665v-10.796c0-0.368,0.298-0.665,0.665-0.665h9.684c0.367,0,0.666,0.297,0.666,0.665V361.725z"/>
		<path clip-path="url(#SVGID_4_)" fill="#C9C9C9" d="M595.15,361.725c0,0.369-0.383,0.665-0.858,0.665h-12.49
			c-0.475,0-0.859-0.296-0.859-0.665v-10.796c0-0.368,0.385-0.665,0.859-0.665h12.49c0.476,0,0.858,0.296,0.858,0.665V361.725z"/>
		<path clip-path="url(#SVGID_4_)" fill="#C9C9C9" d="M657.965,361.725c0,0.366-0.298,0.665-0.666,0.665h-60.046
			c-0.368,0-0.667-0.296-0.667-0.665v-10.796c0-0.368,0.299-0.665,0.667-0.665h60.046c0.368,0,0.666,0.296,0.666,0.665V361.725z"/>
		<path clip-path="url(#SVGID_4_)" fill="#C9C9C9" d="M673.29,361.722c0,0.37-0.298,0.668-0.666,0.668h-12.875
			c-0.368,0-0.663-0.298-0.663-0.665v-10.796c0-0.369,0.295-0.665,0.663-0.665l12.875-0.003c0.368,0,0.666,0.299,0.666,0.668
			V361.722z"/>
		<path clip-path="url(#SVGID_4_)" fill="#C9C9C9" d="M685.901,361.722c0,0.37-0.299,0.668-0.666,0.665l-9.763,0.003
			c-0.369,0-0.667-0.298-0.667-0.665v-10.796c0-0.369,0.298-0.665,0.667-0.668h9.763c0.367,0,0.666,0.299,0.666,0.666V361.722z"/>
		<path clip-path="url(#SVGID_4_)" fill="#C9C9C9" d="M698.354,361.722c0,0.37-0.299,0.665-0.666,0.665h-9.523
			c-0.368,0.003-0.665-0.295-0.665-0.665v-4.73c0-0.367,0.297-0.666,0.665-0.666h9.523c0.367,0,0.666,0.299,0.666,0.664V361.722z"/>
		<path clip-path="url(#SVGID_4_)" fill="#C9C9C9" d="M710.803,361.722c0,0.37-0.295,0.665-0.665,0.665h-9.522
			c-0.367,0-0.666-0.295-0.666-0.665v-4.732c0-0.365,0.299-0.664,0.666-0.664h9.522c0.37,0,0.665,0.299,0.665,0.664V361.722z"/>
		<path clip-path="url(#SVGID_4_)" fill="#C9C9C9" d="M710.803,355.659c0,0.367-0.295,0.666-0.665,0.666h-9.522
			c-0.367,0-0.666-0.297-0.666-0.666v-4.732c0-0.367,0.299-0.666,0.666-0.666h9.522c0.37,0,0.665,0.299,0.665,0.666V355.659z"/>
		<path clip-path="url(#SVGID_4_)" fill="#C9C9C9" d="M723.255,361.722c0,0.37-0.3,0.665-0.665,0.665h-9.526
			c-0.364,0-0.664-0.295-0.664-0.665v-4.732c0-0.365,0.3-0.664,0.664-0.664l9.526-0.002c0.365,0.002,0.665,0.301,0.665,0.666
			V361.722z"/>
		<path clip-path="url(#SVGID_4_)" fill="#EFEEEE" d="M554.922,298.34c0,0.369-0.297,0.667-0.666,0.667h-10.002
			c-0.367,0-0.666-0.298-0.666-0.667v-5.45c0-0.367,0.299-0.666,0.666-0.666h10.002c0.369,0,0.666,0.299,0.666,0.666V298.34z"/>
		<path clip-path="url(#SVGID_4_)" fill="#EFEEEE" d="M567.88,298.34c0,0.369-0.297,0.667-0.666,0.667h-10.002
			c-0.366,0-0.664-0.298-0.664-0.667v-5.45c0-0.367,0.298-0.666,0.664-0.666h10.002c0.369,0,0.666,0.299,0.666,0.666V298.34z"/>
		<path clip-path="url(#SVGID_4_)" fill="#EFEEEE" d="M580.838,298.34c0,0.369-0.296,0.667-0.665,0.667H570.17
			c-0.368,0-0.665-0.298-0.665-0.667v-5.45c0-0.367,0.297-0.666,0.665-0.666h10.003c0.369,0,0.665,0.299,0.665,0.666V298.34z"/>
		<path clip-path="url(#SVGID_4_)" fill="#EFEEEE" d="M593.797,298.34c0,0.369-0.297,0.667-0.667,0.666l-10.002,0.001
			c-0.366,0-0.666-0.298-0.666-0.667v-5.45c0-0.368,0.3-0.666,0.666-0.666h10.002c0.37,0,0.667,0.298,0.667,0.666V298.34z"/>
		<path clip-path="url(#SVGID_4_)" fill="#EFEEEE" d="M606.755,298.34c0,0.369-0.298,0.666-0.667,0.666h-10.002
			c-0.367,0-0.665-0.297-0.665-0.666v-5.45c0-0.368,0.298-0.666,0.665-0.666h10.002c0.369,0,0.667,0.298,0.667,0.666V298.34z"/>
		<path clip-path="url(#SVGID_4_)" fill="#EFEEEE" d="M619.714,298.34c0,0.369-0.3,0.666-0.667,0.666h-10.003
			c-0.368,0-0.666-0.297-0.666-0.666v-5.45c0-0.368,0.298-0.666,0.666-0.666h10.003c0.367,0,0.667,0.298,0.667,0.666V298.34z"/>
		<path clip-path="url(#SVGID_4_)" fill="#EFEEEE" d="M632.67,298.34c0.001,0.369-0.298,0.666-0.665,0.666h-10.003
			c-0.367,0-0.666-0.297-0.666-0.666v-5.45c0-0.368,0.299-0.666,0.665-0.666h10.004c0.367,0,0.665,0.298,0.665,0.666V298.34z"/>
		<path clip-path="url(#SVGID_4_)" fill="#EFEEEE" d="M645.629,298.34c0,0.365-0.298,0.666-0.666,0.666h-10.001
			c-0.37,0-0.666-0.297-0.666-0.666v-5.45c0-0.368,0.296-0.666,0.666-0.666h10.001c0.368,0,0.666,0.298,0.666,0.666V298.34z"/>
		<path clip-path="url(#SVGID_4_)" fill="#EFEEEE" d="M658.586,298.34c0,0.365-0.298,0.666-0.666,0.666h-10.002
			c-0.368,0-0.666-0.301-0.666-0.666v-5.45c0-0.368,0.298-0.666,0.666-0.666h10.001c0.369,0,0.667,0.298,0.667,0.666V298.34z"/>
		<path clip-path="url(#SVGID_4_)" fill="#EFEEEE" d="M671.545,298.34c0,0.365-0.299,0.666-0.667,0.666h-10.001
			c-0.37,0-0.667-0.301-0.667-0.666v-5.45c0-0.368,0.297-0.666,0.667-0.666h10.001c0.368,0,0.667,0.298,0.667,0.666V298.34z"/>
		<path clip-path="url(#SVGID_4_)" fill="#EFEEEE" d="M684.502,298.34c0,0.365-0.297,0.666-0.666,0.666h-10.003
			c-0.366,0-0.663-0.301-0.663-0.666v-5.45c0-0.368,0.297-0.666,0.663-0.666h10.003c0.369,0,0.666,0.298,0.666,0.666V298.34z"/>
		<path clip-path="url(#SVGID_4_)" fill="#EFEEEE" d="M697.46,298.34c0,0.365-0.298,0.666-0.667,0.666h-10.001
			c-0.368,0-0.666-0.301-0.666-0.666v-5.45c0-0.368,0.298-0.666,0.666-0.666h10.001c0.369,0,0.667,0.298,0.667,0.666V298.34z"/>
		<path clip-path="url(#SVGID_4_)" fill="#EFEEEE" d="M710.419,298.34c0,0.365-0.299,0.666-0.666,0.666h-10.002
			c-0.368,0-0.666-0.301-0.666-0.666v-5.45c0-0.368,0.298-0.666,0.666-0.666h10.002c0.367,0,0.666,0.298,0.666,0.666V298.34z"/>
		<path clip-path="url(#SVGID_4_)" fill="#EFEEEE" d="M723.377,298.34c0,0.365-0.298,0.666-0.666,0.666h-10.002
			c-0.367,0-0.667-0.301-0.667-0.666v-5.45c0-0.368,0.299-0.666,0.667-0.667h10.002c0.368,0,0.666,0.299,0.666,0.667V298.34z"/>
		<path clip-path="url(#SVGID_4_)" fill="#EFEEEE" d="M554.922,311.099c0,0.368-0.297,0.665-0.666,0.665l-10.002,0.001
			c-0.367,0-0.666-0.298-0.666-0.664v-9.998c0-0.368,0.299-0.668,0.666-0.665l10.002-0.003c0.369,0,0.666,0.3,0.666,0.668V311.099z"
			/>
		<path clip-path="url(#SVGID_4_)" fill="#EFEEEE" d="M567.389,311.099c0,0.368-0.297,0.665-0.666,0.665h-10.002
			c-0.367,0.001-0.666-0.297-0.666-0.665V301.1c0-0.365,0.299-0.665,0.666-0.665h10.002c0.369,0,0.666,0.3,0.666,0.665V311.099z"/>
		<path clip-path="url(#SVGID_4_)" fill="#EFEEEE" d="M579.854,311.099c0.001,0.368-0.298,0.665-0.665,0.665h-10.003
			c-0.365,0-0.664-0.297-0.664-0.665V301.1c0-0.365,0.299-0.665,0.664-0.665h10.003c0.367,0,0.665,0.3,0.665,0.665V311.099z"/>
		<path clip-path="url(#SVGID_4_)" fill="#EFEEEE" d="M592.321,311.099c0,0.368-0.298,0.665-0.663,0.665h-10.006
			c-0.365,0-0.664-0.297-0.664-0.665V301.1c0-0.365,0.299-0.665,0.664-0.665h10.004c0.367,0,0.665,0.3,0.665,0.665V311.099z"/>
		<path clip-path="url(#SVGID_4_)" fill="#EFEEEE" d="M604.788,311.099c0,0.368-0.298,0.665-0.666,0.665h-10.001
			c-0.37,0-0.667-0.3-0.667-0.665V301.1c0-0.365,0.297-0.665,0.667-0.665h10.001c0.368,0,0.666,0.3,0.666,0.665V311.099z"/>
		<path clip-path="url(#SVGID_4_)" fill="#EFEEEE" d="M617.254,311.099c0.002,0.365-0.297,0.665-0.666,0.665h-10
			c-0.369,0-0.667-0.3-0.667-0.665V301.1c0-0.365,0.298-0.665,0.667-0.665h10c0.369,0,0.666,0.298,0.666,0.665V311.099z"/>
		<path clip-path="url(#SVGID_4_)" fill="#EFEEEE" d="M629.721,311.099c0,0.365-0.298,0.665-0.665,0.665h-10.004
			c-0.366,0-0.663-0.3-0.663-0.665V301.1c0-0.367,0.297-0.665,0.663-0.665h10.004c0.367,0,0.665,0.298,0.665,0.665V311.099z"/>
		<path clip-path="url(#SVGID_4_)" fill="#EFEEEE" d="M642.188,311.099c0,0.365-0.299,0.665-0.667,0.665H631.52
			c-0.368,0-0.665-0.3-0.665-0.665V301.1c0-0.367,0.297-0.665,0.665-0.665h10.002c0.368,0,0.667,0.298,0.667,0.665V311.099z"/>
		<path clip-path="url(#SVGID_4_)" fill="#EFEEEE" d="M654.654,311.099c0,0.365-0.298,0.665-0.667,0.665h-10.002
			c-0.368,0-0.665-0.3-0.665-0.665V301.1c0-0.367,0.297-0.665,0.665-0.665h10.002c0.369,0,0.667,0.298,0.667,0.665V311.099z"/>
		<path clip-path="url(#SVGID_4_)" fill="#EFEEEE" d="M667.12,311.099c0,0.365-0.298,0.665-0.665,0.665h-10.002
			c-0.368,0-0.668-0.3-0.668-0.665V301.1c0-0.367,0.3-0.665,0.666-0.665h10.004c0.367,0,0.665,0.298,0.665,0.665V311.099z"/>
		<path clip-path="url(#SVGID_4_)" fill="#EFEEEE" d="M679.586,311.099c0,0.365-0.298,0.665-0.664,0.665h-10.003
			c-0.369,0-0.665-0.3-0.665-0.665V301.1c0-0.367,0.296-0.665,0.665-0.665h10.001c0.368,0,0.666,0.298,0.666,0.665V311.099z"/>
		<path clip-path="url(#SVGID_4_)" fill="#EFEEEE" d="M576.723,335.319c0,0.367-0.299,0.666-0.664,0.666h-10.004
			c-0.367,0-0.664-0.299-0.664-0.666l-0.002-9.997c0-0.366,0.299-0.667,0.666-0.667h10.004c0.365,0,0.664,0.301,0.664,0.667V335.319
			z"/>
		<path clip-path="url(#SVGID_4_)" fill="#EFEEEE" d="M589.19,335.319c0,0.367-0.298,0.666-0.666,0.666h-10.003
			c-0.367,0-0.665-0.299-0.665-0.666v-9.997c0-0.366,0.298-0.667,0.665-0.667h10.003c0.368,0,0.666,0.301,0.666,0.667V335.319z"/>
		<path clip-path="url(#SVGID_4_)" fill="#EFEEEE" d="M601.656,335.317c0,0.369-0.298,0.667-0.665,0.667l-10.003,0.001
			c-0.368,0-0.666-0.299-0.666-0.666v-9.997c0-0.369,0.298-0.667,0.666-0.667h10.003c0.367,0,0.664,0.298,0.665,0.667V335.317z"/>
		<path clip-path="url(#SVGID_4_)" fill="#EFEEEE" d="M614.122,335.317c0,0.369-0.298,0.667-0.665,0.667h-10.002
			c-0.367,0-0.667-0.298-0.667-0.667v-9.995c0-0.369,0.3-0.667,0.667-0.667h10.001c0.368,0,0.666,0.298,0.666,0.667V335.317z"/>
		<path clip-path="url(#SVGID_4_)" fill="#EFEEEE" d="M626.59,335.317c0,0.369-0.298,0.667-0.667,0.667h-10.001
			c-0.369,0-0.668-0.298-0.668-0.667v-9.995c0-0.369,0.298-0.667,0.668-0.667h10.001c0.369,0,0.667,0.298,0.667,0.667V335.317z"/>
		<path clip-path="url(#SVGID_4_)" fill="#EFEEEE" d="M639.056,335.317c0,0.369-0.299,0.667-0.666,0.667h-10.001
			c-0.369,0-0.668-0.298-0.668-0.667v-9.995c0-0.369,0.299-0.667,0.668-0.667h10.001c0.367,0,0.666,0.298,0.666,0.667V335.317z"/>
		<path clip-path="url(#SVGID_4_)" fill="#EFEEEE" d="M651.521,335.317c0,0.369-0.297,0.667-0.666,0.667h-10.001
			c-0.369,0-0.667-0.298-0.667-0.667v-9.995c0-0.369,0.298-0.667,0.667-0.667h10.001c0.369,0,0.666,0.298,0.666,0.667V335.317z"/>
		<path clip-path="url(#SVGID_4_)" fill="#EFEEEE" d="M663.987,335.317c0,0.369-0.298,0.667-0.665,0.667H653.32
			c-0.369,0-0.666-0.298-0.666-0.667v-9.995c0-0.369,0.297-0.667,0.666-0.667h10.002c0.367,0,0.665,0.298,0.665,0.667V335.317z"/>
		<path clip-path="url(#SVGID_4_)" fill="#EFEEEE" d="M676.455,335.317c0,0.369-0.299,0.667-0.667,0.667h-10.002
			c-0.367,0-0.666-0.298-0.666-0.667v-9.995c0-0.369,0.298-0.667,0.666-0.667h10.002c0.368,0,0.667,0.298,0.667,0.664V335.317z"/>
		<path clip-path="url(#SVGID_4_)" fill="#EFEEEE" d="M688.922,335.317c0,0.369-0.299,0.666-0.666,0.667h-10.004
			c-0.367,0-0.665-0.298-0.665-0.667v-9.998c0-0.366,0.298-0.664,0.665-0.664l10.004-0.002c0.367,0.002,0.666,0.3,0.666,0.666
			V335.317z"/>
		<path clip-path="url(#SVGID_4_)" fill="#EFEEEE" d="M582.958,347.329c0,0.366-0.3,0.664-0.667,0.664h-10.002
			c-0.369,0-0.666-0.298-0.666-0.664v-10c0-0.365,0.297-0.663,0.666-0.663h10.002c0.367,0,0.667,0.297,0.667,0.663V347.329z"/>
		<path clip-path="url(#SVGID_4_)" fill="#EFEEEE" d="M595.422,347.329c0,0.366-0.297,0.664-0.664,0.664h-10.004
			c-0.366,0-0.663-0.298-0.663-0.664v-10c0-0.366,0.297-0.663,0.663-0.663h10.004c0.367,0,0.664,0.297,0.664,0.663V347.329z"/>
		<path clip-path="url(#SVGID_4_)" fill="#EFEEEE" d="M607.89,347.329c0,0.366-0.297,0.664-0.667,0.664h-10
			c-0.37,0-0.667-0.298-0.667-0.664v-10c0-0.366,0.297-0.663,0.667-0.663h10c0.37,0,0.667,0.297,0.667,0.663V347.329z"/>
		<path clip-path="url(#SVGID_4_)" fill="#EFEEEE" d="M620.356,347.329c0,0.366-0.298,0.664-0.665,0.664h-10.004
			c-0.368,0-0.664-0.298-0.664-0.664v-10c0-0.366,0.296-0.663,0.664-0.663h10.004c0.367-0.004,0.665,0.297,0.665,0.663V347.329z"/>
		<path clip-path="url(#SVGID_4_)" fill="#EFEEEE" d="M632.823,347.325c0,0.37-0.299,0.668-0.665,0.668h-10.005
			c-0.366,0-0.664-0.298-0.664-0.664v-10c0-0.366,0.298-0.667,0.664-0.667h10.005c0.366,0,0.665,0.301,0.664,0.667L632.823,347.325z
			"/>
		<path clip-path="url(#SVGID_4_)" fill="#EFEEEE" d="M645.289,347.325c0,0.37-0.298,0.668-0.667,0.668h-10.001
			c-0.366,0-0.666-0.298-0.666-0.668v-9.996c0-0.366,0.3-0.667,0.666-0.667h10.001c0.369,0,0.667,0.301,0.667,0.667V347.325z"/>
		<path clip-path="url(#SVGID_4_)" fill="#EFEEEE" d="M657.756,347.325c0,0.37-0.298,0.668-0.666,0.668h-10.002
			c-0.369,0-0.667-0.298-0.667-0.668v-9.996c0-0.366,0.298-0.667,0.667-0.667h10.002c0.368,0,0.666,0.301,0.666,0.667V347.325z"/>
		<path clip-path="url(#SVGID_4_)" fill="#EFEEEE" d="M670.222,347.325c0,0.37-0.298,0.668-0.666,0.668h-10.001
			c-0.37,0-0.668-0.298-0.668-0.668v-9.996c0-0.366,0.298-0.667,0.668-0.667h10.001c0.368,0,0.666,0.301,0.666,0.667V347.325z"/>
		<path clip-path="url(#SVGID_4_)" fill="#EFEEEE" d="M682.688,347.325c0,0.37-0.298,0.668-0.667,0.666l-10.002,0.002
			c-0.366,0-0.666-0.298-0.666-0.668v-9.996c0-0.366,0.3-0.667,0.666-0.667h10.002c0.369,0,0.667,0.301,0.667,0.667V347.325z"/>
		<path clip-path="url(#SVGID_4_)" fill="#EFEEEE" d="M695.154,347.325c0,0.37-0.297,0.666-0.667,0.666l-10,0.002
			c-0.37-0.002-0.667-0.298-0.667-0.668v-9.996c0-0.366,0.297-0.667,0.667-0.667h10c0.37,0,0.667,0.301,0.667,0.667V347.325z"/>
		<path clip-path="url(#SVGID_4_)" fill="#EFEEEE" d="M701.388,335.317c0,0.369-0.299,0.666-0.668,0.666h-10.001
			c-0.365,0-0.665-0.297-0.665-0.666v-9.998c0-0.366,0.3-0.666,0.665-0.666h10.001c0.369,0,0.668,0.3,0.668,0.666V335.317z"/>
		<path clip-path="url(#SVGID_4_)" fill="#EFEEEE" d="M692.054,311.099c0,0.365-0.299,0.665-0.667,0.665h-9.999
			c-0.372,0-0.669-0.3-0.669-0.665V301.1c0-0.367,0.297-0.665,0.666-0.665h10.002c0.368,0,0.667,0.298,0.667,0.665V311.099z"/>
		<path clip-path="url(#SVGID_4_)" fill="#EFEEEE" d="M704.52,311.096c0,0.368-0.299,0.668-0.666,0.668h-10.002
			c-0.368,0-0.666-0.3-0.666-0.665V301.1c-0.001-0.367,0.298-0.665,0.666-0.665l10.002-0.001c0.367,0,0.666,0.299,0.666,0.665
			V311.096z"/>
		<path clip-path="url(#SVGID_4_)" fill="#EFEEEE" d="M573.547,323.231c0,0.369-0.298,0.666-0.665,0.666h-10.003
			c-0.368,0-0.665-0.297-0.665-0.665v-10c0-0.364,0.297-0.664,0.665-0.664h10.003c0.367,0,0.665,0.3,0.665,0.664V323.231z"/>
		<path clip-path="url(#SVGID_4_)" fill="#EFEEEE" d="M586.015,323.231c0,0.369-0.299,0.666-0.667,0.666h-10.002
			c-0.367,0-0.666-0.297-0.666-0.666l-0.001-9.999c0-0.364,0.3-0.664,0.667-0.664h10.001c0.369,0,0.668,0.3,0.668,0.664V323.231z"/>
		<path clip-path="url(#SVGID_4_)" fill="#EFEEEE" d="M598.48,323.231c0,0.369-0.298,0.666-0.666,0.666h-10.002
			c-0.367,0-0.666-0.297-0.666-0.666v-9.999c0-0.364,0.297-0.664,0.666-0.664h10.002c0.368,0,0.666,0.3,0.666,0.664V323.231z"/>
		<path clip-path="url(#SVGID_4_)" fill="#EFEEEE" d="M610.947,323.231c0,0.369-0.299,0.666-0.666,0.666h-10.003
			c-0.367,0-0.664-0.297-0.664-0.666v-9.999c0-0.364,0.297-0.664,0.664-0.664h10.003c0.367,0,0.666,0.3,0.666,0.664V323.231z"/>
		<path clip-path="url(#SVGID_4_)" fill="#EFEEEE" d="M623.413,323.231c0,0.368-0.299,0.666-0.666,0.666h-10.002
			c-0.367,0-0.665-0.297-0.665-0.666v-9.999c0-0.364,0.298-0.664,0.665-0.664h10.002c0.367,0,0.666,0.3,0.666,0.664V323.231z"/>
		<path clip-path="url(#SVGID_4_)" fill="#EFEEEE" d="M635.88,323.231c0,0.368-0.298,0.666-0.667,0.666h-10.002
			c-0.367,0-0.667-0.298-0.667-0.666v-9.999c0-0.364,0.3-0.664,0.667-0.664h10.002c0.369,0,0.667,0.297,0.667,0.664V323.231z"/>
		<path clip-path="url(#SVGID_4_)" fill="#EFEEEE" d="M648.347,323.231c0,0.368-0.299,0.666-0.667,0.666h-10.002
			c-0.368,0-0.665-0.298-0.665-0.666v-9.999c0-0.367,0.297-0.664,0.665-0.664h10.002c0.368,0,0.667,0.297,0.667,0.664V323.231z"/>
		<path clip-path="url(#SVGID_4_)" fill="#EFEEEE" d="M660.812,323.231c0,0.368-0.298,0.666-0.666,0.666h-10.002
			c-0.369,0-0.666-0.298-0.666-0.666v-9.999c0-0.367,0.297-0.664,0.666-0.664h10.002c0.368,0,0.666,0.297,0.666,0.664V323.231z"/>
		<path clip-path="url(#SVGID_4_)" fill="#EFEEEE" d="M673.279,323.231c0,0.368-0.299,0.666-0.667,0.666h-10.001
			c-0.367,0-0.667-0.298-0.667-0.666v-9.999c0-0.367,0.298-0.664,0.667-0.664h10.001c0.368,0,0.667,0.297,0.667,0.664V323.231z"/>
		<path clip-path="url(#SVGID_4_)" fill="#EFEEEE" d="M685.745,323.231c0,0.368-0.299,0.666-0.666,0.666h-10
			c-0.371,0-0.668-0.298-0.668-0.666v-9.999c0-0.367,0.297-0.664,0.666-0.664h10.002c0.367,0,0.666,0.297,0.666,0.664V323.231z"/>
		<path clip-path="url(#SVGID_4_)" fill="#EFEEEE" d="M698.211,323.231c0,0.368-0.297,0.666-0.663,0.666h-10.003
			c-0.369,0-0.666-0.298-0.666-0.666l-0.001-9.999c0-0.367,0.298-0.664,0.665-0.664h10.005c0.366,0,0.663,0.297,0.663,0.664V323.231
			z"/>
		<path clip-path="url(#SVGID_4_)" fill="#EFEEEE" d="M710.678,323.231c0,0.368-0.298,0.666-0.666,0.666h-10.003
			c-0.365,0-0.665-0.298-0.665-0.666l-0.001-9.999c0.001-0.367,0.299-0.664,0.666-0.664h10.003c0.368,0,0.666,0.297,0.666,0.664
			V323.231z"/>
		<path clip-path="url(#SVGID_4_)" fill="#EFEEEE" d="M723.145,323.231c0,0.368-0.298,0.666-0.667,0.666h-10.001
			c-0.369,0-0.665-0.298-0.665-0.666v-9.999c0-0.367,0.296-0.664,0.665-0.664h10.001c0.369,0,0.667,0.297,0.667,0.664V323.231z"/>
		<path clip-path="url(#SVGID_4_)" fill="#EFEEEE" d="M560.908,322.835c0,0.368-0.298,0.664-0.666,0.664h-15.988
			c-0.367,0-0.666-0.296-0.666-0.664v-9.201c0-0.368,0.299-0.664,0.666-0.664h15.988c0.368,0,0.666,0.296,0.666,0.664V322.835z"/>
		<path clip-path="url(#SVGID_4_)" fill="#EFEEEE" d="M563.862,334.881c-0.001,0.367-0.297,0.666-0.666,0.666h-18.942
			c-0.367,0-0.666-0.299-0.666-0.666v-9.119c0-0.368,0.299-0.666,0.666-0.666l18.942-0.003c0.369,0,0.665,0.301,0.665,0.669
			L563.862,334.881z"/>
		<path clip-path="url(#SVGID_4_)" fill="#EFEEEE" d="M570.247,346.926c0,0.369-0.298,0.668-0.666,0.668h-25.327
			c-0.367,0-0.665-0.299-0.665-0.668v-9.194c0-0.366,0.298-0.664,0.665-0.664h25.327c0.368,0,0.666,0.296,0.666,0.664V346.926z"/>
		<path clip-path="url(#SVGID_4_)" fill="#EFEEEE" d="M723.254,310.698c0,0.368-0.299,0.666-0.666,0.666h-15.987
			c-0.367,0-0.665-0.298-0.665-0.666l-0.002-9.2c0-0.367,0.3-0.665,0.667-0.665h15.987c0.367,0,0.666,0.298,0.666,0.665V310.698z"/>
		<path clip-path="url(#SVGID_4_)" fill="#EFEEEE" d="M723.255,334.88c-0.001,0.365-0.3,0.664-0.665,0.664h-18.941
			c-0.369,0-0.668-0.299-0.668-0.664v-9.121c0-0.368,0.298-0.666,0.668-0.666h18.939c0.367,0,0.666,0.298,0.666,0.666
			L723.255,334.88z"/>
		<path clip-path="url(#SVGID_4_)" fill="#EFEEEE" d="M723.255,346.926c0,0.368-0.3,0.666-0.665,0.666h-25.327
			c-0.367,0-0.667-0.298-0.667-0.666v-9.195c0-0.367,0.299-0.665,0.667-0.665h25.325c0.367,0,0.666,0.295,0.667,0.665V346.926z"/>
		<path clip-path="url(#SVGID_4_)" fill="#EFEEEE" d="M554.604,360.729c0,0.368-0.297,0.666-0.665,0.666h-9.684
			c-0.368,0-0.666-0.298-0.666-0.666v-10.796c0-0.366,0.298-0.666,0.666-0.666h9.684c0.368,0,0.665,0.3,0.665,0.666V360.729z"/>
		<path clip-path="url(#SVGID_4_)" fill="#EFEEEE" d="M567.056,360.729c0,0.368-0.298,0.666-0.665,0.666h-9.685
			c-0.366,0-0.666-0.298-0.665-0.666l-0.001-10.796c0-0.366,0.3-0.666,0.666-0.666h9.685c0.367,0,0.665,0.298,0.665,0.666V360.729z"
			/>
		<path clip-path="url(#SVGID_4_)" fill="#EFEEEE" d="M579.507,360.729c0,0.368-0.299,0.666-0.666,0.666h-9.683
			c-0.368,0-0.666-0.298-0.666-0.666v-10.796c0-0.368,0.298-0.666,0.665-0.666h9.684c0.367,0,0.666,0.298,0.666,0.666V360.729z"/>
		<path clip-path="url(#SVGID_4_)" fill="#EFEEEE" d="M595.15,360.729c0,0.368-0.383,0.666-0.858,0.666h-12.49
			c-0.475,0-0.859-0.298-0.859-0.666v-10.796c0-0.368,0.385-0.666,0.859-0.666h12.49c0.476,0,0.858,0.298,0.858,0.664V360.729z"/>
		<path clip-path="url(#SVGID_4_)" fill="#EFEEEE" d="M657.965,360.729c0,0.366-0.298,0.666-0.666,0.663l-60.046,0.003
			c-0.368,0-0.667-0.298-0.667-0.666v-10.796c0-0.368,0.299-0.666,0.667-0.666h60.046c0.368,0,0.666,0.298,0.666,0.664V360.729z"/>
		<path clip-path="url(#SVGID_4_)" fill="#EFEEEE" d="M673.29,360.729c0,0.366-0.298,0.663-0.666,0.663h-12.875
			c-0.368,0-0.663-0.297-0.663-0.663v-10.798c0-0.366,0.295-0.664,0.663-0.664h12.875c0.368,0,0.666,0.298,0.666,0.664V360.729z"/>
		<path clip-path="url(#SVGID_4_)" fill="#EFEEEE" d="M685.901,360.729c0,0.366-0.299,0.663-0.666,0.663h-9.763
			c-0.369,0-0.667-0.297-0.667-0.663v-10.798c0-0.366,0.298-0.664,0.667-0.664h9.763c0.367,0,0.666,0.298,0.666,0.664V360.729z"/>
		<path clip-path="url(#SVGID_4_)" fill="#EFEEEE" d="M698.354,360.729c0,0.366-0.299,0.663-0.666,0.663h-9.523
			c-0.368,0-0.665-0.297-0.665-0.663v-4.733c0-0.368,0.297-0.666,0.665-0.666h9.523c0.367,0,0.666,0.298,0.666,0.666V360.729z"/>
		<path clip-path="url(#SVGID_4_)" fill="#EFEEEE" d="M710.803,360.729c0,0.366-0.295,0.663-0.665,0.663h-9.522
			c-0.367,0-0.666-0.297-0.666-0.663v-4.733c0-0.368,0.299-0.666,0.666-0.666h9.522c0.37,0,0.665,0.298,0.665,0.666V360.729z"/>
		<path clip-path="url(#SVGID_4_)" fill="#EFEEEE" d="M710.803,354.664c0,0.368-0.295,0.666-0.665,0.666h-9.522
			c-0.367,0-0.666-0.298-0.666-0.666v-4.732c0-0.366,0.299-0.664,0.666-0.664h9.522c0.37,0,0.665,0.298,0.665,0.664V354.664z"/>
		<path clip-path="url(#SVGID_4_)" fill="#EFEEEE" d="M723.255,360.729c0,0.366-0.3,0.663-0.665,0.663h-9.526
			c-0.364,0-0.664-0.297-0.664-0.663v-4.733c0-0.368,0.3-0.666,0.664-0.666h9.526c0.365,0,0.665,0.298,0.665,0.666V360.729z"/>
		<rect x="599.34" y="222.627" clip-path="url(#SVGID_4_)" fill="#CAC9C9" width="77.744" height="33.876"/>
		<rect x="589.371" y="248.53" clip-path="url(#SVGID_4_)" fill="#EFEFEF" width="97.678" height="7.973"/>
		<path clip-path="url(#SVGID_4_)" fill="#EFEFEF" d="M772,220.659c0,4.401-3.57,7.972-7.973,7.972H512.396
			c-4.403,0-7.974-3.57-7.974-7.972V41.588c0-4.4,3.57-7.97,7.974-7.97h251.632c4.402,0,7.973,3.57,7.973,7.97V220.659z"/>
		<path clip-path="url(#SVGID_4_)" fill="#010202" d="M772,203.357V41.587c0-4.4-3.57-7.969-7.973-7.969H512.396
			c-4.403,0-7.974,3.569-7.974,7.969v161.77H772z"/>
		<rect x="515.801" y="44.99" clip-path="url(#SVGID_4_)" fill="#ABD2D2" width="244.82" height="151.628"/>
		<rect x="515.801" y="44.99" clip-path="url(#SVGID_4_)" fill="#CAC9C9" width="244.82" height="12.637"/>
		<rect x="547.12" y="48.385" clip-path="url(#SVGID_4_)" fill="#EFEFEF" width="182.182" height="5.845"/>
		<path clip-path="url(#SVGID_4_)" fill="#E62F31" d="M524.154,51.309c0,1.613-1.312,2.921-2.927,2.921
			c-1.613,0-2.922-1.309-2.922-2.921c0-1.614,1.309-2.923,2.922-2.923C522.843,48.386,524.154,49.695,524.154,51.309"/>
		<path clip-path="url(#SVGID_4_)" fill="#F7E92E" d="M532.504,51.309c0,1.613-1.311,2.921-2.924,2.921s-2.924-1.309-2.924-2.921
			c0-1.614,1.311-2.923,2.924-2.923S532.504,49.695,532.504,51.309"/>
		<path clip-path="url(#SVGID_4_)" fill="#8BBF43" d="M540.855,51.309c0,1.613-1.31,2.921-2.923,2.921
			c-1.616,0-2.926-1.309-2.926-2.921c0-1.614,1.31-2.923,2.926-2.923C539.546,48.386,540.855,49.695,540.855,51.309"/>
		<rect x="732.259" y="48.385" clip-path="url(#SVGID_4_)" fill="#808081" width="13.695" height="0.743"/>
		<rect x="732.259" y="50.086" clip-path="url(#SVGID_4_)" fill="#808081" width="13.695" height="0.744"/>
		<rect x="732.259" y="51.788" clip-path="url(#SVGID_4_)" fill="#808081" width="13.695" height="0.744"/>
		<rect x="732.259" y="53.488" clip-path="url(#SVGID_4_)" fill="#808081" width="13.695" height="0.742"/>
		<rect x="749.067" y="48.385" clip-path="url(#SVGID_4_)" fill="#808081" width="7.603" height="5.845"/>
		<rect x="541.2" y="57.627" clip-path="url(#SVGID_4_)" fill="#03445E" width="194.021" height="12.575"/>
		<rect x="541.2" y="70.204" clip-path="url(#SVGID_4_)" fill="#EB584D" width="194.021" height="26.401"/>
		<rect x="541.2" y="96.603" clip-path="url(#SVGID_4_)" fill="#EFEFEF" width="194.021" height="100.016"/>
		<rect x="545.494" y="73.295" clip-path="url(#SVGID_4_)" fill="#EFEFEF" width="54.217" height="19.804"/>
		<rect x="612.141" y="86.258" clip-path="url(#SVGID_4_)" fill="#EFEFEF" width="17.729" height="6.478"/>
		<rect x="635.583" y="86.258" clip-path="url(#SVGID_4_)" fill="#EFEFEF" width="17.728" height="6.478"/>
		<rect x="659.025" y="86.258" clip-path="url(#SVGID_4_)" fill="#EFEFEF" width="17.73" height="6.478"/>
		<rect x="682.468" y="86.258" clip-path="url(#SVGID_4_)" fill="#EFEFEF" width="17.73" height="6.478"/>
		<rect x="705.912" y="86.258" clip-path="url(#SVGID_4_)" fill="#EFEFEF" width="17.726" height="6.478"/>
		<rect x="546.912" y="111.05" clip-path="url(#SVGID_4_)" fill="#F7A634" width="118.406" height="54.193"/>
		<rect x="675.295" y="111.05" clip-path="url(#SVGID_4_)" fill="#9FCFA2" width="54.216" height="54.193"/>
		<rect x="546.912" y="167.778" clip-path="url(#SVGID_4_)" fill="#4E4E4E" width="118.406" height="1.11"/>
		<rect x="546.912" y="170.708" clip-path="url(#SVGID_4_)" fill="#4E4E4E" width="118.406" height="1.107"/>
		<rect x="546.912" y="173.638" clip-path="url(#SVGID_4_)" fill="#4E4E4E" width="118.406" height="1.107"/>
		<rect x="546.912" y="176.565" clip-path="url(#SVGID_4_)" fill="#4E4E4E" width="118.406" height="1.107"/>
		<rect x="546.912" y="179.494" clip-path="url(#SVGID_4_)" fill="#4E4E4E" width="118.406" height="1.107"/>
		<rect x="546.912" y="182.421" clip-path="url(#SVGID_4_)" fill="#4E4E4E" width="118.406" height="1.109"/>
		<rect x="546.912" y="185.35" clip-path="url(#SVGID_4_)" fill="#4E4E4E" width="118.406" height="1.108"/>
		<rect x="675.295" y="167.778" clip-path="url(#SVGID_4_)" fill="#4E4E4E" width="54.216" height="1.11"/>
		<rect x="675.295" y="170.708" clip-path="url(#SVGID_4_)" fill="#4E4E4E" width="54.216" height="1.107"/>
		<rect x="675.295" y="173.638" clip-path="url(#SVGID_4_)" fill="#4E4E4E" width="54.216" height="1.107"/>
		<rect x="675.295" y="176.565" clip-path="url(#SVGID_4_)" fill="#4E4E4E" width="54.216" height="1.107"/>
		<rect x="675.295" y="179.494" clip-path="url(#SVGID_4_)" fill="#4E4E4E" width="54.216" height="1.107"/>
		<rect x="675.295" y="182.421" clip-path="url(#SVGID_4_)" fill="#4E4E4E" width="54.216" height="1.109"/>
		<rect x="675.295" y="185.35" clip-path="url(#SVGID_4_)" fill="#4E4E4E" width="54.216" height="1.108"/>
		<path clip-path="url(#SVGID_4_)" fill="#010202" d="M644.449,217.149c0,3.442-2.795,6.233-6.239,6.233
			c-3.442,0-6.235-2.791-6.235-6.233c0-3.443,2.793-6.23,6.235-6.23C641.654,210.919,644.449,213.706,644.449,217.149"/>
	</g>
</g>
<g>
	<g>
		<g>
			<path fill="#4E4E4E" d="M-114,336.228c0,10.587-7.726,20.772-18.307,20.772H-329.66c-10.581,0-20.34-10.186-20.34-20.772V63.028
				C-350,52.442-340.241,43-329.66,43h197.354C-121.726,43-114,52.442-114,63.028V336.228z"/>
			<rect x="-330" y="66" fill="#F2F2F2" width="197" height="240"/>
			<path fill="#B4B4B4" d="M-215.148,330.781c0,8.75-7.085,15.831-15.836,15.831c-8.748,0-15.834-7.081-15.834-15.831
				c0-8.751,7.087-15.841,15.834-15.841C-222.233,314.94-215.148,322.03-215.148,330.781z"/>
		</g>
	</g>
	<g>
		<path fill="#03445E" d="M-230,103.777c0,3.316-1.894,5.223-5.21,5.223h-64.065c-3.318,0-5.725-1.907-5.725-5.223V91.765
			c0-3.316,2.406-5.765,5.725-5.765h64.065c3.316,0,5.21,2.448,5.21,5.765V103.777z"/>
		<path fill="#EB584D" d="M-158,179.853c0,3.316-1.82,7.147-5.137,7.147h-136.138c-3.318,0-5.725-3.831-5.725-7.147v-56.056
			c0-3.316,2.406-6.797,5.725-6.797h136.138c3.317,0,5.137,3.481,5.137,6.797V179.853z"/>
		<path fill="#F7A634" d="M-235,227.902c0,3.315-2.897,6.098-6.217,6.098h-58.059c-3.318,0-5.725-2.782-5.725-6.098v-30.031
			c0-3.316,2.406-5.872,5.725-5.872h58.059c3.319,0,6.217,2.556,6.217,5.872V227.902z"/>
		<path fill="#9FCFA2" d="M-157,228.459c0,3.061-2.48,5.541-5.541,5.541h-58.919c-3.06,0-5.541-2.48-5.541-5.541v-30.918
			c0-3.06,2.48-5.541,5.541-5.541h58.919c3.06,0,5.541,2.481,5.541,5.541V228.459z"/>
		<g>
			<path fill="#B4B4B4" d="M-158,245.42c0,1.384-0.22,2.58-1.564,2.58h-65.205c-1.344,0-2.23-1.196-2.23-2.58v-1
				c0-1.383,0.886-2.42,2.23-2.42h65.205c1.345,0,1.564,1.037,1.564,2.42V245.42z"/>
			<path fill="#B4B4B4" d="M-158,255.431c0,1.381-0.22,3.569-1.564,3.569h-65.205c-1.344,0-2.23-2.188-2.23-3.569v-1.003
				c0-1.38,0.886-2.428,2.23-2.428h65.205c1.345,0,1.564,1.048,1.564,2.428V255.431z"/>
			<path fill="#B4B4B4" d="M-158,265.44c0,1.383-0.22,2.56-1.564,2.56h-65.205c-1.344,0-2.23-1.177-2.23-2.56v-0.999
				c0-1.385,0.886-1.441,2.23-1.441h65.205c1.345,0,1.564,0.057,1.564,1.441V265.44z"/>
			<path fill="#B4B4B4" d="M-158,275.451c0,1.382-0.22,1.549-1.564,1.549h-65.205c-1.344,0-2.23-0.167-2.23-1.549v-1.002
				c0-1.38,0.886-1.449,2.23-1.449h65.205c1.345,0,1.564,0.069,1.564,1.449V275.451z"/>
			<path fill="#B4B4B4" d="M-190,285.461c0,1.382-0.253,4.539-1.596,4.539h-33.174c-1.344,0-2.23-3.157-2.23-4.539v-1
				c0-1.384,0.886-2.461,2.23-2.461h33.174c1.342,0,1.596,1.077,1.596,2.461V285.461z"/>
		</g>
		<g>
			<path fill="#B4B4B4" d="M-235,245.42c0,1.384-1.3,2.58-2.642,2.58h-65.208c-1.344,0-2.15-1.196-2.15-2.58v-1
				c0-1.383,0.807-2.42,2.15-2.42h65.208c1.342,0,2.642,1.037,2.642,2.42V245.42z"/>
			<path fill="#B4B4B4" d="M-235,255.431c0,1.381-1.3,3.569-2.642,3.569h-65.208c-1.344,0-2.15-2.188-2.15-3.569v-1.003
				c0-1.38,0.807-2.428,2.15-2.428h65.208c1.342,0,2.642,1.048,2.642,2.428V255.431z"/>
			<path fill="#B4B4B4" d="M-235,265.44c0,1.383-1.3,2.56-2.642,2.56h-65.208c-1.344,0-2.15-1.177-2.15-2.56v-0.999
				c0-1.385,0.807-1.441,2.15-1.441h65.208c1.342,0,2.642,0.057,2.642,1.441V265.44z"/>
			<path fill="#B4B4B4" d="M-235,275.451c0,1.382-1.3,1.549-2.642,1.549h-65.208c-1.344,0-2.15-0.167-2.15-1.549v-1.002
				c0-1.38,0.807-1.449,2.15-1.449h65.208c1.342,0,2.642,0.069,2.642,1.449V275.451z"/>
			<path fill="#B4B4B4" d="M-267,285.461c0,1.382-1.332,4.539-2.677,4.539h-33.173c-1.344,0-2.15-3.157-2.15-4.539v-1
				c0-1.384,0.807-2.461,2.15-2.461h33.173c1.345,0,2.677,1.077,2.677,2.461V285.461z"/>
		</g>
	</g>
</g>
<g>
	<g>
		<g>
			<path fill="#4E4E4E" d="M-50,345.134C-50,351.535-55.387,357-61.796,357h-73.454c-6.405,0-12.75-5.465-12.75-11.866V186.628
				c0-6.402,6.345-12.628,12.75-12.628h73.454C-55.387,174-50,180.226-50,186.628V345.134z"/>
			<g>
				<path fill="#4E4E4E" d="M-50,345.134C-50,351.535-55.387,357-61.796,357h-73.454c-6.405,0-12.75-5.465-12.75-11.866V186.628
					c0-6.402,6.345-12.628,12.75-12.628h73.454C-55.387,174-50,180.226-50,186.628V345.134z"/>
				<rect x="-141" y="197" fill="#F2F2F2" width="85" height="133"/>
				<circle fill="#B4B4B4" cx="-98.521" cy="343.653" r="7.022"/>
				<path fill="#B4B4B4" d="M-82,188.818c0,0.998-0.573,2.182-1.575,2.182h-34.653c-1.001,0-1.772-1.184-1.772-2.182v-0.293
					c0-0.998,0.771-1.525,1.772-1.525h34.653c1.002,0,1.575,0.527,1.575,1.525V188.818z"/>
			</g>
		</g>
	</g>
	<g>
		<path fill="#E94A2F" d="M-65,217.521c0,1.921-1.557,3.479-3.477,3.479h-59.047c-1.92,0-3.477-1.558-3.477-3.479v-7.043
			c0-1.921,1.557-3.479,3.477-3.479h59.047c1.92,0,3.477,1.558,3.477,3.479V217.521z"/>
		<path fill="#F7A634" d="M-65,261.109c0,1.939-1.466,3.891-3.398,3.891h-59.263c-1.932,0-3.339-1.951-3.339-3.891v-32.729
			c0-1.941,1.407-3.381,3.339-3.381h59.263c1.932,0,3.398,1.439,3.398,3.381V261.109z"/>
		<path fill="#9A9999" d="M-65,288.658c0,1.92-1.2,3.342-3.164,3.342h-59.856c-1.964,0-2.979-1.422-2.979-3.342v-17.391
			c0-1.92,1.015-3.268,2.979-3.268h59.856c1.964,0,3.164,1.348,3.164,3.268V288.658z"/>
		<path fill="#9A9999" d="M-65,317.312c0,1.92-1.2,3.688-3.164,3.688h-59.856c-1.965,0-2.979-1.769-2.979-3.688v-17.39
			c0-1.921,1.014-2.922,2.979-2.922h59.856c1.964,0,3.164,1.001,3.164,2.922V317.312z"/>
	</g>
</g>
</svg>
