<?xml version="1.0" encoding="utf-8"?>
<!-- Generator: Adobe Illustrator 16.0.0, SVG Export Plug-In . SVG Version: 6.00 Build 0)  -->
<!DOCTYPE svg PUBLIC "-//W3C//DTD SVG 1.1//EN" "http://www.w3.org/Graphics/SVG/1.1/DTD/svg11.dtd">
<svg version="1.1" id="RAW_ICONS_-_SQUARE__x2F__ROUNDED__x2F__CIRCLE"
	 xmlns="http://www.w3.org/2000/svg" xmlns:xlink="http://www.w3.org/1999/xlink" x="0px" y="0px" width="166.361px"
	 height="70.996px" viewBox="0 0 166.361 70.996" enable-background="new 0 0 166.361 70.996" xml:space="preserve">
<path fill="#FFFFFF" d="M107.455,13.836c-0.992,0-1.926-0.535-2.245-1.146c0,0-0.534,2.117-0.646,2.525
	c-0.398,1.445-1.569,2.891-1.659,3.008c-0.063,0.082-0.204,0.058-0.219-0.053c-0.025-0.185-0.324-2.006,0.026-3.492
	c0.178-0.746,1.184-5.008,1.184-5.008s-0.294-0.586-0.294-1.453c0-1.363,0.79-2.379,1.772-2.379c0.836,0,1.238,0.627,1.238,1.379
	c0,0.84-0.534,2.098-0.812,3.262c-0.229,0.976,0.488,1.771,1.45,1.771c1.741,0,2.914-2.236,2.914-4.888
	c0-2.014-1.355-3.521-3.824-3.521c-2.786,0-4.523,2.08-4.523,4.402c0,0.801,0.236,1.364,0.605,1.801
	c0.17,0.201,0.193,0.283,0.133,0.514c-0.045,0.168-0.146,0.576-0.188,0.736c-0.061,0.233-0.25,0.315-0.46,0.229
	c-1.284-0.522-1.882-1.93-1.882-3.512c0-2.609,2.201-5.74,6.567-5.74c3.51,0,5.818,2.539,5.818,5.267
	C112.414,11.143,110.409,13.836,107.455,13.836z"/>
<path fill="#FFFFFF" d="M64.521,7.011c0.007,0.141,0.01,0.281,0.01,0.424c0,4.338-3.302,9.34-9.34,9.34
	c-1.854,0-3.579-0.543-5.032-1.475c0.258,0.029,0.52,0.045,0.783,0.045c1.539,0,2.953-0.522,4.076-1.404
	c-1.437-0.026-2.648-0.977-3.065-2.278c0.2,0.037,0.405,0.059,0.617,0.059c0.3,0,0.59-0.041,0.864-0.115
	c-1.5-0.303-2.634-1.629-2.634-3.219c0-0.014,0-0.027,0-0.041c0.443,0.246,0.949,0.394,1.487,0.41
	c-0.881-0.588-1.46-1.594-1.46-2.732c0-0.602,0.162-1.166,0.444-1.649c1.618,1.985,4.038,3.293,6.766,3.43
	c-0.056-0.24-0.085-0.49-0.085-0.748c0-1.812,1.47-3.281,3.283-3.281c0.943,0,1.797,0.398,2.396,1.035
	c0.747-0.146,1.45-0.42,2.085-0.797c-0.245,0.769-0.766,1.41-1.442,1.816c0.664-0.078,1.297-0.256,1.885-0.517
	C65.719,5.97,65.162,6.548,64.521,7.011z"/>
<path fill="#FFFFFF" d="M13.523,10.279h-2.242c0,3.582,0,7.994,0,7.994H7.958c0,0,0-4.366,0-7.994h-1.58V7.455h1.58V5.627
	c0-1.31,0.621-3.354,3.354-3.354l2.461,0.011v2.741c0,0-1.496,0-1.786,0c-0.291,0-0.705,0.146-0.705,0.771v1.66h2.533L13.523,10.279
	z"/>
<g>
	<circle fill="#FFFFFF" cx="149.832" cy="10.273" r="3.549"/>
	<circle fill="#FFFFFF" cx="158.734" cy="10.273" r="3.549"/>
</g>
<path fill="#5EA9DD" d="M65.749,54.071c0.008,0.167,0.012,0.335,0.012,0.506c0,5.175-3.939,11.143-11.143,11.143
	c-2.212,0-4.27-0.647-6.003-1.76c0.307,0.035,0.62,0.054,0.934,0.054c1.836,0,3.523-0.624,4.863-1.675
	c-1.714-0.033-3.16-1.165-3.657-2.72c0.239,0.044,0.483,0.07,0.736,0.07c0.357,0,0.704-0.05,1.031-0.138
	c-1.79-0.361-3.142-1.943-3.142-3.841c0-0.016,0-0.032,0-0.049c0.528,0.294,1.132,0.471,1.774,0.489
	c-1.051-0.7-1.742-1.901-1.742-3.259c0-0.718,0.193-1.392,0.53-1.967c1.93,2.367,4.817,3.929,8.071,4.092
	c-0.066-0.287-0.102-0.585-0.102-0.893c0-2.162,1.753-3.915,3.917-3.915c1.125,0,2.144,0.476,2.858,1.235
	c0.891-0.175,1.73-0.501,2.488-0.95c-0.292,0.915-0.914,1.682-1.721,2.167c0.792-0.094,1.547-0.306,2.248-0.618
	C67.177,52.828,66.513,53.518,65.749,54.071z"/>
<path fill="#3B5998" d="M13.523,57.968h-2.242c0,3.582,0,7.994,0,7.994H7.958c0,0,0-4.367,0-7.994h-1.58v-2.824h1.58v-1.828
	c0-1.309,0.621-3.354,3.354-3.354l2.461,0.01v2.742c0,0-1.496,0-1.786,0c-0.291,0-0.705,0.145-0.705,0.77v1.66h2.533L13.523,57.968z
	"/>
<path fill-rule="evenodd" clip-rule="evenodd" fill="#221E1B" d="M149.832,49.635c-4.716,0-8.539,3.823-8.539,8.54
	c0,3.772,2.446,6.973,5.841,8.103c0.426,0.079,0.582-0.186,0.582-0.412c0-0.202-0.008-0.739-0.012-1.451
	c-2.375,0.516-2.876-1.146-2.876-1.146c-0.389-0.986-0.948-1.249-0.948-1.249c-0.775-0.53,0.059-0.519,0.059-0.519
	c0.857,0.061,1.309,0.879,1.309,0.879c0.762,1.306,1.998,0.929,2.484,0.71c0.078-0.552,0.299-0.928,0.543-1.142
	c-1.896-0.215-3.891-0.948-3.891-4.221c0-0.932,0.333-1.694,0.879-2.291c-0.088-0.217-0.381-1.085,0.084-2.26
	c0,0,0.717-0.229,2.349,0.875c0.681-0.189,1.411-0.284,2.138-0.287c0.725,0.003,1.455,0.098,2.138,0.287
	c1.63-1.104,2.347-0.875,2.347-0.875c0.465,1.175,0.172,2.043,0.084,2.26c0.548,0.597,0.879,1.359,0.879,2.291
	c0,3.28-1.997,4.003-3.899,4.215c0.307,0.263,0.579,0.784,0.579,1.58c0,1.143-0.01,2.063-0.01,2.343
	c0,0.229,0.154,0.495,0.587,0.411c3.391-1.132,5.835-4.33,5.835-8.102C158.372,53.458,154.548,49.635,149.832,49.635z"/>
<g>
	<path fill="#FFFFFF" d="M114.186,57.964c0,5.209-4.223,9.431-9.432,9.431c-5.208,0-9.431-4.222-9.431-9.431
		s4.223-9.431,9.431-9.431C109.964,48.533,114.186,52.755,114.186,57.964"/>
	<g>
		<path fill="#BD081C" d="M104.744,49.579c-4.631,0-8.385,3.754-8.385,8.385c0,3.552,2.21,6.586,5.329,7.808
			c-0.073-0.663-0.14-1.681,0.029-2.405c0.152-0.654,0.983-4.168,0.983-4.168s-0.251-0.502-0.251-1.244
			c0-1.166,0.676-2.037,1.517-2.037c0.716,0,1.062,0.538,1.062,1.181c0,0.72-0.458,1.796-0.694,2.793
			c-0.197,0.835,0.418,1.515,1.241,1.515c1.49,0,2.636-1.571,2.636-3.84c0-2.007-1.441-3.411-3.502-3.411
			c-2.386,0-3.786,1.791-3.786,3.64c0,0.721,0.277,1.493,0.623,1.913c0.069,0.083,0.08,0.155,0.06,0.24
			c-0.064,0.266-0.205,0.835-0.234,0.951c-0.036,0.153-0.121,0.186-0.279,0.112c-1.047-0.487-1.702-2.02-1.702-3.248
			c0-2.646,1.922-5.074,5.54-5.074c2.908,0,5.169,2.073,5.169,4.843c0,2.89-1.822,5.215-4.352,5.215
			c-0.849,0-1.647-0.441-1.921-0.963c0,0-0.421,1.602-0.521,1.993c-0.189,0.729-0.701,1.642-1.044,2.198
			c0.785,0.243,1.619,0.374,2.483,0.374c4.632,0,8.385-3.754,8.385-8.385S109.376,49.579,104.744,49.579z"/>
	</g>
</g>
</svg>
